<?xml version="1.0" encoding="utf-8" standalone="no"?>
<!DOCTYPE svg PUBLIC "-//W3C//DTD SVG 1.1//EN"
  "http://www.w3.org/Graphics/SVG/1.1/DTD/svg11.dtd">
<svg xmlns:xlink="http://www.w3.org/1999/xlink" width="864pt" height="144pt" viewBox="0 0 864 144" xmlns="http://www.w3.org/2000/svg" version="1.1">
 <metadata>
  <rdf:RDF xmlns:dc="http://purl.org/dc/elements/1.1/" xmlns:cc="http://creativecommons.org/ns#" xmlns:rdf="http://www.w3.org/1999/02/22-rdf-syntax-ns#">
   <cc:Work>
    <dc:type rdf:resource="http://purl.org/dc/dcmitype/StillImage"/>
    <dc:date>2025-03-29T17:10:44.993418</dc:date>
    <dc:format>image/svg+xml</dc:format>
    <dc:creator>
     <cc:Agent>
      <dc:title>Matplotlib v3.6.2, https://matplotlib.org/</dc:title>
     </cc:Agent>
    </dc:creator>
   </cc:Work>
  </rdf:RDF>
 </metadata>
 <defs>
  <style type="text/css">*{stroke-linejoin: round; stroke-linecap: butt}</style>
 </defs>
 <g id="figure_1">
  <g id="patch_1">
   <path d="M 0 144 
L 864 144 
L 864 0 
L 0 0 
z
" style="fill: #ffffff"/>
  </g>
  <g id="axes_1">
   <g id="patch_2">
    <path d="M 67.52 81.304 
L 844.234627 81.304 
L 844.234627 15.84 
L 67.52 15.84 
z
" style="fill: #ffffff"/>
   </g>
   <g id="matplotlib.axis_1">
    <g id="xtick_1">
     <g id="line2d_1">
      <path d="M 102.82521 81.304 
L 102.82521 15.84 
" clip-path="url(#pdcafed6181)" style="fill: none; stroke: #b0b0b0; stroke-width: 0.8; stroke-linecap: square"/>
     </g>
     <g id="line2d_2">
      <defs>
       <path id="mf9141705a2" d="M 0 0 
L 0 3.5 
" style="stroke: #000000; stroke-width: 0.8"/>
      </defs>
      <g>
       <use xlink:href="#mf9141705a2" x="102.82521" y="81.304" style="stroke: #000000; stroke-width: 0.8"/>
      </g>
     </g>
     <g id="text_1">
      <!-- 0 -->
      <g transform="translate(99.00771 97.422125) scale(0.12 -0.12)">
       <defs>
        <path id="DejaVuSans-30" d="M 2034 4250 
Q 1547 4250 1301 3770 
Q 1056 3291 1056 2328 
Q 1056 1369 1301 889 
Q 1547 409 2034 409 
Q 2525 409 2770 889 
Q 3016 1369 3016 2328 
Q 3016 3291 2770 3770 
Q 2525 4250 2034 4250 
z
M 2034 4750 
Q 2819 4750 3233 4129 
Q 3647 3509 3647 2328 
Q 3647 1150 3233 529 
Q 2819 -91 2034 -91 
Q 1250 -91 836 529 
Q 422 1150 422 2328 
Q 422 3509 836 4129 
Q 1250 4750 2034 4750 
z
" transform="scale(0.015625)"/>
       </defs>
       <use xlink:href="#DejaVuSans-30"/>
      </g>
     </g>
    </g>
    <g id="xtick_2">
     <g id="line2d_3">
      <path d="M 250.545756 81.304 
L 250.545756 15.84 
" clip-path="url(#pdcafed6181)" style="fill: none; stroke: #b0b0b0; stroke-width: 0.8; stroke-linecap: square"/>
     </g>
     <g id="line2d_4">
      <g>
       <use xlink:href="#mf9141705a2" x="250.545756" y="81.304" style="stroke: #000000; stroke-width: 0.8"/>
      </g>
     </g>
     <g id="text_2">
      <!-- 50 -->
      <g transform="translate(242.910756 97.422125) scale(0.12 -0.12)">
       <defs>
        <path id="DejaVuSans-35" d="M 691 4666 
L 3169 4666 
L 3169 4134 
L 1269 4134 
L 1269 2991 
Q 1406 3038 1543 3061 
Q 1681 3084 1819 3084 
Q 2600 3084 3056 2656 
Q 3513 2228 3513 1497 
Q 3513 744 3044 326 
Q 2575 -91 1722 -91 
Q 1428 -91 1123 -41 
Q 819 9 494 109 
L 494 744 
Q 775 591 1075 516 
Q 1375 441 1709 441 
Q 2250 441 2565 725 
Q 2881 1009 2881 1497 
Q 2881 1984 2565 2268 
Q 2250 2553 1709 2553 
Q 1456 2553 1204 2497 
Q 953 2441 691 2322 
L 691 4666 
z
" transform="scale(0.015625)"/>
       </defs>
       <use xlink:href="#DejaVuSans-35"/>
       <use xlink:href="#DejaVuSans-30" x="63.623047"/>
      </g>
     </g>
    </g>
    <g id="xtick_3">
     <g id="line2d_5">
      <path d="M 398.266301 81.304 
L 398.266301 15.84 
" clip-path="url(#pdcafed6181)" style="fill: none; stroke: #b0b0b0; stroke-width: 0.8; stroke-linecap: square"/>
     </g>
     <g id="line2d_6">
      <g>
       <use xlink:href="#mf9141705a2" x="398.266301" y="81.304" style="stroke: #000000; stroke-width: 0.8"/>
      </g>
     </g>
     <g id="text_3">
      <!-- 100 -->
      <g transform="translate(386.813801 97.422125) scale(0.12 -0.12)">
       <defs>
        <path id="DejaVuSans-31" d="M 794 531 
L 1825 531 
L 1825 4091 
L 703 3866 
L 703 4441 
L 1819 4666 
L 2450 4666 
L 2450 531 
L 3481 531 
L 3481 0 
L 794 0 
L 794 531 
z
" transform="scale(0.015625)"/>
       </defs>
       <use xlink:href="#DejaVuSans-31"/>
       <use xlink:href="#DejaVuSans-30" x="63.623047"/>
       <use xlink:href="#DejaVuSans-30" x="127.246094"/>
      </g>
     </g>
    </g>
    <g id="xtick_4">
     <g id="line2d_7">
      <path d="M 545.986846 81.304 
L 545.986846 15.84 
" clip-path="url(#pdcafed6181)" style="fill: none; stroke: #b0b0b0; stroke-width: 0.8; stroke-linecap: square"/>
     </g>
     <g id="line2d_8">
      <g>
       <use xlink:href="#mf9141705a2" x="545.986846" y="81.304" style="stroke: #000000; stroke-width: 0.8"/>
      </g>
     </g>
     <g id="text_4">
      <!-- 150 -->
      <g transform="translate(534.534346 97.422125) scale(0.12 -0.12)">
       <use xlink:href="#DejaVuSans-31"/>
       <use xlink:href="#DejaVuSans-35" x="63.623047"/>
       <use xlink:href="#DejaVuSans-30" x="127.246094"/>
      </g>
     </g>
    </g>
    <g id="xtick_5">
     <g id="line2d_9">
      <path d="M 693.707392 81.304 
L 693.707392 15.84 
" clip-path="url(#pdcafed6181)" style="fill: none; stroke: #b0b0b0; stroke-width: 0.8; stroke-linecap: square"/>
     </g>
     <g id="line2d_10">
      <g>
       <use xlink:href="#mf9141705a2" x="693.707392" y="81.304" style="stroke: #000000; stroke-width: 0.8"/>
      </g>
     </g>
     <g id="text_5">
      <!-- 200 -->
      <g transform="translate(682.254892 97.422125) scale(0.12 -0.12)">
       <defs>
        <path id="DejaVuSans-32" d="M 1228 531 
L 3431 531 
L 3431 0 
L 469 0 
L 469 531 
Q 828 903 1448 1529 
Q 2069 2156 2228 2338 
Q 2531 2678 2651 2914 
Q 2772 3150 2772 3378 
Q 2772 3750 2511 3984 
Q 2250 4219 1831 4219 
Q 1534 4219 1204 4116 
Q 875 4013 500 3803 
L 500 4441 
Q 881 4594 1212 4672 
Q 1544 4750 1819 4750 
Q 2544 4750 2975 4387 
Q 3406 4025 3406 3419 
Q 3406 3131 3298 2873 
Q 3191 2616 2906 2266 
Q 2828 2175 2409 1742 
Q 1991 1309 1228 531 
z
" transform="scale(0.015625)"/>
       </defs>
       <use xlink:href="#DejaVuSans-32"/>
       <use xlink:href="#DejaVuSans-30" x="63.623047"/>
       <use xlink:href="#DejaVuSans-30" x="127.246094"/>
      </g>
     </g>
    </g>
    <g id="xtick_6">
     <g id="line2d_11">
      <path d="M 841.427937 81.304 
L 841.427937 15.84 
" clip-path="url(#pdcafed6181)" style="fill: none; stroke: #b0b0b0; stroke-width: 0.8; stroke-linecap: square"/>
     </g>
     <g id="line2d_12">
      <g>
       <use xlink:href="#mf9141705a2" x="841.427937" y="81.304" style="stroke: #000000; stroke-width: 0.8"/>
      </g>
     </g>
     <g id="text_6">
      <!-- 250 -->
      <g transform="translate(829.975437 97.422125) scale(0.12 -0.12)">
       <use xlink:href="#DejaVuSans-32"/>
       <use xlink:href="#DejaVuSans-35" x="63.623047"/>
       <use xlink:href="#DejaVuSans-30" x="127.246094"/>
      </g>
     </g>
    </g>
    <g id="text_7">
     <!-- Hours  -->
     <g transform="translate(436.392314 113.035875) scale(0.12 -0.12)">
      <defs>
       <path id="DejaVuSans-48" d="M 628 4666 
L 1259 4666 
L 1259 2753 
L 3553 2753 
L 3553 4666 
L 4184 4666 
L 4184 0 
L 3553 0 
L 3553 2222 
L 1259 2222 
L 1259 0 
L 628 0 
L 628 4666 
z
" transform="scale(0.015625)"/>
       <path id="DejaVuSans-6f" d="M 1959 3097 
Q 1497 3097 1228 2736 
Q 959 2375 959 1747 
Q 959 1119 1226 758 
Q 1494 397 1959 397 
Q 2419 397 2687 759 
Q 2956 1122 2956 1747 
Q 2956 2369 2687 2733 
Q 2419 3097 1959 3097 
z
M 1959 3584 
Q 2709 3584 3137 3096 
Q 3566 2609 3566 1747 
Q 3566 888 3137 398 
Q 2709 -91 1959 -91 
Q 1206 -91 779 398 
Q 353 888 353 1747 
Q 353 2609 779 3096 
Q 1206 3584 1959 3584 
z
" transform="scale(0.015625)"/>
       <path id="DejaVuSans-75" d="M 544 1381 
L 544 3500 
L 1119 3500 
L 1119 1403 
Q 1119 906 1312 657 
Q 1506 409 1894 409 
Q 2359 409 2629 706 
Q 2900 1003 2900 1516 
L 2900 3500 
L 3475 3500 
L 3475 0 
L 2900 0 
L 2900 538 
Q 2691 219 2414 64 
Q 2138 -91 1772 -91 
Q 1169 -91 856 284 
Q 544 659 544 1381 
z
M 1991 3584 
L 1991 3584 
z
" transform="scale(0.015625)"/>
       <path id="DejaVuSans-72" d="M 2631 2963 
Q 2534 3019 2420 3045 
Q 2306 3072 2169 3072 
Q 1681 3072 1420 2755 
Q 1159 2438 1159 1844 
L 1159 0 
L 581 0 
L 581 3500 
L 1159 3500 
L 1159 2956 
Q 1341 3275 1631 3429 
Q 1922 3584 2338 3584 
Q 2397 3584 2469 3576 
Q 2541 3569 2628 3553 
L 2631 2963 
z
" transform="scale(0.015625)"/>
       <path id="DejaVuSans-73" d="M 2834 3397 
L 2834 2853 
Q 2591 2978 2328 3040 
Q 2066 3103 1784 3103 
Q 1356 3103 1142 2972 
Q 928 2841 928 2578 
Q 928 2378 1081 2264 
Q 1234 2150 1697 2047 
L 1894 2003 
Q 2506 1872 2764 1633 
Q 3022 1394 3022 966 
Q 3022 478 2636 193 
Q 2250 -91 1575 -91 
Q 1294 -91 989 -36 
Q 684 19 347 128 
L 347 722 
Q 666 556 975 473 
Q 1284 391 1588 391 
Q 1994 391 2212 530 
Q 2431 669 2431 922 
Q 2431 1156 2273 1281 
Q 2116 1406 1581 1522 
L 1381 1569 
Q 847 1681 609 1914 
Q 372 2147 372 2553 
Q 372 3047 722 3315 
Q 1072 3584 1716 3584 
Q 2034 3584 2315 3537 
Q 2597 3491 2834 3397 
z
" transform="scale(0.015625)"/>
       <path id="DejaVuSans-20" transform="scale(0.015625)"/>
      </defs>
      <use xlink:href="#DejaVuSans-48"/>
      <use xlink:href="#DejaVuSans-6f" x="75.195312"/>
      <use xlink:href="#DejaVuSans-75" x="136.376953"/>
      <use xlink:href="#DejaVuSans-72" x="199.755859"/>
      <use xlink:href="#DejaVuSans-73" x="240.869141"/>
      <use xlink:href="#DejaVuSans-20" x="292.96875"/>
     </g>
     <!--  (b) ANN Part Forecast Load at Epoch 1 -->
     <g transform="translate(339.209189 126.47325) scale(0.12 -0.12)">
      <defs>
       <path id="DejaVuSans-28" d="M 1984 4856 
Q 1566 4138 1362 3434 
Q 1159 2731 1159 2009 
Q 1159 1288 1364 580 
Q 1569 -128 1984 -844 
L 1484 -844 
Q 1016 -109 783 600 
Q 550 1309 550 2009 
Q 550 2706 781 3412 
Q 1013 4119 1484 4856 
L 1984 4856 
z
" transform="scale(0.015625)"/>
       <path id="DejaVuSans-62" d="M 3116 1747 
Q 3116 2381 2855 2742 
Q 2594 3103 2138 3103 
Q 1681 3103 1420 2742 
Q 1159 2381 1159 1747 
Q 1159 1113 1420 752 
Q 1681 391 2138 391 
Q 2594 391 2855 752 
Q 3116 1113 3116 1747 
z
M 1159 2969 
Q 1341 3281 1617 3432 
Q 1894 3584 2278 3584 
Q 2916 3584 3314 3078 
Q 3713 2572 3713 1747 
Q 3713 922 3314 415 
Q 2916 -91 2278 -91 
Q 1894 -91 1617 61 
Q 1341 213 1159 525 
L 1159 0 
L 581 0 
L 581 4863 
L 1159 4863 
L 1159 2969 
z
" transform="scale(0.015625)"/>
       <path id="DejaVuSans-29" d="M 513 4856 
L 1013 4856 
Q 1481 4119 1714 3412 
Q 1947 2706 1947 2009 
Q 1947 1309 1714 600 
Q 1481 -109 1013 -844 
L 513 -844 
Q 928 -128 1133 580 
Q 1338 1288 1338 2009 
Q 1338 2731 1133 3434 
Q 928 4138 513 4856 
z
" transform="scale(0.015625)"/>
       <path id="DejaVuSans-41" d="M 2188 4044 
L 1331 1722 
L 3047 1722 
L 2188 4044 
z
M 1831 4666 
L 2547 4666 
L 4325 0 
L 3669 0 
L 3244 1197 
L 1141 1197 
L 716 0 
L 50 0 
L 1831 4666 
z
" transform="scale(0.015625)"/>
       <path id="DejaVuSans-4e" d="M 628 4666 
L 1478 4666 
L 3547 763 
L 3547 4666 
L 4159 4666 
L 4159 0 
L 3309 0 
L 1241 3903 
L 1241 0 
L 628 0 
L 628 4666 
z
" transform="scale(0.015625)"/>
       <path id="DejaVuSans-50" d="M 1259 4147 
L 1259 2394 
L 2053 2394 
Q 2494 2394 2734 2622 
Q 2975 2850 2975 3272 
Q 2975 3691 2734 3919 
Q 2494 4147 2053 4147 
L 1259 4147 
z
M 628 4666 
L 2053 4666 
Q 2838 4666 3239 4311 
Q 3641 3956 3641 3272 
Q 3641 2581 3239 2228 
Q 2838 1875 2053 1875 
L 1259 1875 
L 1259 0 
L 628 0 
L 628 4666 
z
" transform="scale(0.015625)"/>
       <path id="DejaVuSans-61" d="M 2194 1759 
Q 1497 1759 1228 1600 
Q 959 1441 959 1056 
Q 959 750 1161 570 
Q 1363 391 1709 391 
Q 2188 391 2477 730 
Q 2766 1069 2766 1631 
L 2766 1759 
L 2194 1759 
z
M 3341 1997 
L 3341 0 
L 2766 0 
L 2766 531 
Q 2569 213 2275 61 
Q 1981 -91 1556 -91 
Q 1019 -91 701 211 
Q 384 513 384 1019 
Q 384 1609 779 1909 
Q 1175 2209 1959 2209 
L 2766 2209 
L 2766 2266 
Q 2766 2663 2505 2880 
Q 2244 3097 1772 3097 
Q 1472 3097 1187 3025 
Q 903 2953 641 2809 
L 641 3341 
Q 956 3463 1253 3523 
Q 1550 3584 1831 3584 
Q 2591 3584 2966 3190 
Q 3341 2797 3341 1997 
z
" transform="scale(0.015625)"/>
       <path id="DejaVuSans-74" d="M 1172 4494 
L 1172 3500 
L 2356 3500 
L 2356 3053 
L 1172 3053 
L 1172 1153 
Q 1172 725 1289 603 
Q 1406 481 1766 481 
L 2356 481 
L 2356 0 
L 1766 0 
Q 1100 0 847 248 
Q 594 497 594 1153 
L 594 3053 
L 172 3053 
L 172 3500 
L 594 3500 
L 594 4494 
L 1172 4494 
z
" transform="scale(0.015625)"/>
       <path id="DejaVuSans-46" d="M 628 4666 
L 3309 4666 
L 3309 4134 
L 1259 4134 
L 1259 2759 
L 3109 2759 
L 3109 2228 
L 1259 2228 
L 1259 0 
L 628 0 
L 628 4666 
z
" transform="scale(0.015625)"/>
       <path id="DejaVuSans-65" d="M 3597 1894 
L 3597 1613 
L 953 1613 
Q 991 1019 1311 708 
Q 1631 397 2203 397 
Q 2534 397 2845 478 
Q 3156 559 3463 722 
L 3463 178 
Q 3153 47 2828 -22 
Q 2503 -91 2169 -91 
Q 1331 -91 842 396 
Q 353 884 353 1716 
Q 353 2575 817 3079 
Q 1281 3584 2069 3584 
Q 2775 3584 3186 3129 
Q 3597 2675 3597 1894 
z
M 3022 2063 
Q 3016 2534 2758 2815 
Q 2500 3097 2075 3097 
Q 1594 3097 1305 2825 
Q 1016 2553 972 2059 
L 3022 2063 
z
" transform="scale(0.015625)"/>
       <path id="DejaVuSans-63" d="M 3122 3366 
L 3122 2828 
Q 2878 2963 2633 3030 
Q 2388 3097 2138 3097 
Q 1578 3097 1268 2742 
Q 959 2388 959 1747 
Q 959 1106 1268 751 
Q 1578 397 2138 397 
Q 2388 397 2633 464 
Q 2878 531 3122 666 
L 3122 134 
Q 2881 22 2623 -34 
Q 2366 -91 2075 -91 
Q 1284 -91 818 406 
Q 353 903 353 1747 
Q 353 2603 823 3093 
Q 1294 3584 2113 3584 
Q 2378 3584 2631 3529 
Q 2884 3475 3122 3366 
z
" transform="scale(0.015625)"/>
       <path id="DejaVuSans-4c" d="M 628 4666 
L 1259 4666 
L 1259 531 
L 3531 531 
L 3531 0 
L 628 0 
L 628 4666 
z
" transform="scale(0.015625)"/>
       <path id="DejaVuSans-64" d="M 2906 2969 
L 2906 4863 
L 3481 4863 
L 3481 0 
L 2906 0 
L 2906 525 
Q 2725 213 2448 61 
Q 2172 -91 1784 -91 
Q 1150 -91 751 415 
Q 353 922 353 1747 
Q 353 2572 751 3078 
Q 1150 3584 1784 3584 
Q 2172 3584 2448 3432 
Q 2725 3281 2906 2969 
z
M 947 1747 
Q 947 1113 1208 752 
Q 1469 391 1925 391 
Q 2381 391 2643 752 
Q 2906 1113 2906 1747 
Q 2906 2381 2643 2742 
Q 2381 3103 1925 3103 
Q 1469 3103 1208 2742 
Q 947 2381 947 1747 
z
" transform="scale(0.015625)"/>
       <path id="DejaVuSans-45" d="M 628 4666 
L 3578 4666 
L 3578 4134 
L 1259 4134 
L 1259 2753 
L 3481 2753 
L 3481 2222 
L 1259 2222 
L 1259 531 
L 3634 531 
L 3634 0 
L 628 0 
L 628 4666 
z
" transform="scale(0.015625)"/>
       <path id="DejaVuSans-70" d="M 1159 525 
L 1159 -1331 
L 581 -1331 
L 581 3500 
L 1159 3500 
L 1159 2969 
Q 1341 3281 1617 3432 
Q 1894 3584 2278 3584 
Q 2916 3584 3314 3078 
Q 3713 2572 3713 1747 
Q 3713 922 3314 415 
Q 2916 -91 2278 -91 
Q 1894 -91 1617 61 
Q 1341 213 1159 525 
z
M 3116 1747 
Q 3116 2381 2855 2742 
Q 2594 3103 2138 3103 
Q 1681 3103 1420 2742 
Q 1159 2381 1159 1747 
Q 1159 1113 1420 752 
Q 1681 391 2138 391 
Q 2594 391 2855 752 
Q 3116 1113 3116 1747 
z
" transform="scale(0.015625)"/>
       <path id="DejaVuSans-68" d="M 3513 2113 
L 3513 0 
L 2938 0 
L 2938 2094 
Q 2938 2591 2744 2837 
Q 2550 3084 2163 3084 
Q 1697 3084 1428 2787 
Q 1159 2491 1159 1978 
L 1159 0 
L 581 0 
L 581 4863 
L 1159 4863 
L 1159 2956 
Q 1366 3272 1645 3428 
Q 1925 3584 2291 3584 
Q 2894 3584 3203 3211 
Q 3513 2838 3513 2113 
z
" transform="scale(0.015625)"/>
      </defs>
      <use xlink:href="#DejaVuSans-20"/>
      <use xlink:href="#DejaVuSans-28" x="31.787109"/>
      <use xlink:href="#DejaVuSans-62" x="70.800781"/>
      <use xlink:href="#DejaVuSans-29" x="134.277344"/>
      <use xlink:href="#DejaVuSans-20" x="173.291016"/>
      <use xlink:href="#DejaVuSans-41" x="205.078125"/>
      <use xlink:href="#DejaVuSans-4e" x="273.486328"/>
      <use xlink:href="#DejaVuSans-4e" x="348.291016"/>
      <use xlink:href="#DejaVuSans-20" x="423.095703"/>
      <use xlink:href="#DejaVuSans-50" x="454.882812"/>
      <use xlink:href="#DejaVuSans-61" x="510.685547"/>
      <use xlink:href="#DejaVuSans-72" x="571.964844"/>
      <use xlink:href="#DejaVuSans-74" x="613.078125"/>
      <use xlink:href="#DejaVuSans-20" x="652.287109"/>
      <use xlink:href="#DejaVuSans-46" x="684.074219"/>
      <use xlink:href="#DejaVuSans-6f" x="737.96875"/>
      <use xlink:href="#DejaVuSans-72" x="799.150391"/>
      <use xlink:href="#DejaVuSans-65" x="838.013672"/>
      <use xlink:href="#DejaVuSans-63" x="899.537109"/>
      <use xlink:href="#DejaVuSans-61" x="954.517578"/>
      <use xlink:href="#DejaVuSans-73" x="1015.796875"/>
      <use xlink:href="#DejaVuSans-74" x="1067.896484"/>
      <use xlink:href="#DejaVuSans-20" x="1107.105469"/>
      <use xlink:href="#DejaVuSans-4c" x="1138.892578"/>
      <use xlink:href="#DejaVuSans-6f" x="1192.855469"/>
      <use xlink:href="#DejaVuSans-61" x="1254.037109"/>
      <use xlink:href="#DejaVuSans-64" x="1315.316406"/>
      <use xlink:href="#DejaVuSans-20" x="1378.792969"/>
      <use xlink:href="#DejaVuSans-61" x="1410.580078"/>
      <use xlink:href="#DejaVuSans-74" x="1471.859375"/>
      <use xlink:href="#DejaVuSans-20" x="1511.068359"/>
      <use xlink:href="#DejaVuSans-45" x="1542.855469"/>
      <use xlink:href="#DejaVuSans-70" x="1606.039062"/>
      <use xlink:href="#DejaVuSans-6f" x="1669.515625"/>
      <use xlink:href="#DejaVuSans-63" x="1730.697266"/>
      <use xlink:href="#DejaVuSans-68" x="1785.677734"/>
      <use xlink:href="#DejaVuSans-20" x="1849.056641"/>
      <use xlink:href="#DejaVuSans-31" x="1880.84375"/>
     </g>
    </g>
   </g>
   <g id="matplotlib.axis_2">
    <g id="ytick_1">
     <g id="line2d_13">
      <path d="M 67.52 81.304 
L 844.234627 81.304 
" clip-path="url(#pdcafed6181)" style="fill: none; stroke: #b0b0b0; stroke-width: 0.8; stroke-linecap: square"/>
     </g>
     <g id="line2d_14">
      <defs>
       <path id="m65437908b3" d="M 0 0 
L -3.5 0 
" style="stroke: #000000; stroke-width: 0.8"/>
      </defs>
      <g>
       <use xlink:href="#m65437908b3" x="67.52" y="81.304" style="stroke: #000000; stroke-width: 0.8"/>
      </g>
     </g>
     <g id="text_8">
      <!-- −200 -->
      <g transform="translate(27.559375 85.863062) scale(0.12 -0.12)">
       <defs>
        <path id="DejaVuSans-2212" d="M 678 2272 
L 4684 2272 
L 4684 1741 
L 678 1741 
L 678 2272 
z
" transform="scale(0.015625)"/>
       </defs>
       <use xlink:href="#DejaVuSans-2212"/>
       <use xlink:href="#DejaVuSans-32" x="83.789062"/>
       <use xlink:href="#DejaVuSans-30" x="147.412109"/>
       <use xlink:href="#DejaVuSans-30" x="211.035156"/>
      </g>
     </g>
    </g>
    <g id="ytick_2">
     <g id="line2d_15">
      <path d="M 67.52 48.572 
L 844.234627 48.572 
" clip-path="url(#pdcafed6181)" style="fill: none; stroke: #b0b0b0; stroke-width: 0.8; stroke-linecap: square"/>
     </g>
     <g id="line2d_16">
      <g>
       <use xlink:href="#m65437908b3" x="67.52" y="48.572" style="stroke: #000000; stroke-width: 0.8"/>
      </g>
     </g>
     <g id="text_9">
      <!-- 0 -->
      <g transform="translate(52.885 53.131062) scale(0.12 -0.12)">
       <use xlink:href="#DejaVuSans-30"/>
      </g>
     </g>
    </g>
    <g id="ytick_3">
     <g id="line2d_17">
      <path d="M 67.52 15.84 
L 844.234627 15.84 
" clip-path="url(#pdcafed6181)" style="fill: none; stroke: #b0b0b0; stroke-width: 0.8; stroke-linecap: square"/>
     </g>
     <g id="line2d_18">
      <g>
       <use xlink:href="#m65437908b3" x="67.52" y="15.84" style="stroke: #000000; stroke-width: 0.8"/>
      </g>
     </g>
     <g id="text_10">
      <!-- 200 -->
      <g transform="translate(37.615 20.399062) scale(0.12 -0.12)">
       <use xlink:href="#DejaVuSans-32"/>
       <use xlink:href="#DejaVuSans-30" x="63.623047"/>
       <use xlink:href="#DejaVuSans-30" x="127.246094"/>
      </g>
     </g>
    </g>
    <g id="text_11">
     <!-- MW -->
     <g transform="translate(21.06375 59.681375) rotate(-90) scale(0.12 -0.12)">
      <defs>
       <path id="DejaVuSans-4d" d="M 628 4666 
L 1569 4666 
L 2759 1491 
L 3956 4666 
L 4897 4666 
L 4897 0 
L 4281 0 
L 4281 4097 
L 3078 897 
L 2444 897 
L 1241 4097 
L 1241 0 
L 628 0 
L 628 4666 
z
" transform="scale(0.015625)"/>
       <path id="DejaVuSans-57" d="M 213 4666 
L 850 4666 
L 1831 722 
L 2809 4666 
L 3519 4666 
L 4500 722 
L 5478 4666 
L 6119 4666 
L 4947 0 
L 4153 0 
L 3169 4050 
L 2175 0 
L 1381 0 
L 213 4666 
z
" transform="scale(0.015625)"/>
      </defs>
      <use xlink:href="#DejaVuSans-4d"/>
      <use xlink:href="#DejaVuSans-57" x="86.279297"/>
     </g>
    </g>
   </g>
   <g id="line2d_19">
    <path d="M 102.82521 65.067697 
L 105.779621 64.177157 
L 108.734032 62.864281 
L 111.688443 61.968546 
L 114.642854 60.823725 
L 117.597265 60.172282 
L 120.551676 59.72789 
L 123.506087 58.31856 
L 126.460498 53.737199 
L 129.414908 52.339856 
L 132.369319 49.394775 
L 138.278141 47.870691 
L 144.186963 45.166945 
L 147.141374 45.733042 
L 150.095785 46.693586 
L 153.050196 47.923913 
L 156.004607 48.50839 
L 158.959018 49.549805 
L 161.913428 51.753701 
L 164.867839 52.149186 
L 167.82225 51.188322 
L 170.776661 51.025222 
L 173.731072 65.056749 
L 176.685483 63.584928 
L 179.639894 62.647719 
L 182.594305 61.449357 
L 185.548716 59.885157 
L 188.503127 58.538159 
L 191.457538 57.497863 
L 194.411948 55.084677 
L 197.366359 52.082699 
L 200.32077 50.350923 
L 203.275181 48.94487 
L 206.229592 45.822224 
L 209.184003 46.741773 
L 212.138414 44.72583 
L 215.092825 47.312905 
L 218.047236 48.140634 
L 221.001647 50.200129 
L 223.956057 51.521236 
L 226.910468 51.711427 
L 232.81929 52.98179 
L 235.773701 52.289671 
L 238.728112 53.161832 
L 241.682523 53.323174 
L 244.636934 66.040867 
L 247.591345 64.841306 
L 250.545756 64.298224 
L 253.500167 67.341197 
L 256.454577 69.22049 
L 259.408988 70.471194 
L 262.363399 67.939739 
L 265.31781 66.026083 
L 277.135454 51.738278 
L 280.089865 52.065278 
L 283.044276 51.263919 
L 285.998687 50.855728 
L 288.953097 51.430296 
L 291.907508 52.56393 
L 294.861919 53.985086 
L 297.81633 54.547348 
L 300.770741 54.116302 
L 303.725152 54.615114 
L 306.679563 54.42748 
L 309.633974 54.942114 
L 312.588385 56.085496 
L 315.542796 69.323736 
L 321.451617 73.173023 
L 324.406028 72.008384 
L 327.360439 71.87541 
L 330.31485 70.960097 
L 333.269261 69.461984 
L 336.223672 67.661804 
L 339.178083 64.134564 
L 342.132494 56.905714 
L 345.086905 55.516682 
L 348.041316 54.591539 
L 350.995726 53.032694 
L 353.950137 52.707292 
L 356.904548 53.55412 
L 359.858959 53.108371 
L 362.81337 52.971321 
L 365.767781 54.100719 
L 371.676603 55.654131 
L 374.631014 55.119519 
L 377.585425 55.320338 
L 380.539836 53.549086 
L 383.494246 52.965808 
L 386.448657 67.670674 
L 389.403068 66.141317 
L 392.357479 65.42019 
L 395.31189 63.352704 
L 398.266301 62.351325 
L 401.220712 62.552863 
L 404.175123 61.949926 
L 407.129534 61.525833 
L 410.083945 60.478345 
L 413.038355 58.99182 
L 415.992766 58.933244 
L 418.947177 57.882959 
L 424.855999 57.397813 
L 430.764821 55.846 
L 433.719232 54.643802 
L 436.673643 55.788463 
L 439.628054 57.365369 
L 442.582465 58.153782 
L 445.536875 58.044702 
L 448.491286 59.520359 
L 451.445697 57.263561 
L 454.400108 57.516003 
L 457.354519 69.795298 
L 460.30893 69.996037 
L 463.263341 69.418912 
L 469.172163 69.261964 
L 472.126574 68.637291 
L 475.080985 68.500642 
L 478.035395 68.105716 
L 480.989806 64.404986 
L 483.944217 60.396835 
L 486.898628 58.752243 
L 489.853039 58.804106 
L 492.80745 58.324793 
L 495.761861 58.379214 
L 498.716272 55.736041 
L 501.670683 56.742694 
L 507.579504 57.980612 
L 510.533915 59.249936 
L 513.488326 59.751784 
L 516.442737 60.899482 
L 519.397148 60.381731 
L 522.351559 60.705535 
L 525.30597 60.90076 
L 528.260381 67.057908 
L 531.214792 67.604188 
L 534.169203 69.256051 
L 537.123614 70.068198 
L 540.078024 69.326134 
L 543.032435 70.172243 
L 545.986846 70.7751 
L 548.941257 66.548469 
L 551.895668 60.71888 
L 554.850079 58.274289 
L 560.758901 51.534102 
L 563.713312 50.292028 
L 566.667723 49.906372 
L 569.622134 49.235271 
L 572.576544 50.409339 
L 575.530955 52.348646 
L 578.485366 53.326211 
L 581.439777 56.296145 
L 584.394188 56.714724 
L 587.348599 56.84594 
L 590.30301 56.798472 
L 593.257421 57.166228 
L 596.211832 57.795456 
L 599.166243 66.629899 
L 602.120653 65.59256 
L 605.075064 65.375279 
L 608.029475 64.075509 
L 613.938297 63.74707 
L 619.847119 62.020649 
L 628.710352 53.816472 
L 631.664763 52.069913 
L 637.573584 50.668574 
L 640.527995 51.801568 
L 643.482406 51.223644 
L 646.436817 52.050734 
L 652.345639 54.717401 
L 658.254461 56.822206 
L 661.208872 56.864719 
L 664.163283 57.49179 
L 667.117693 60.313726 
L 670.072104 76.979636 
L 673.026515 78.628862 
L 675.980926 79.697207 
L 678.935337 79.422549 
L 681.889748 79.950369 
L 684.844159 77.459588 
L 687.79857 76.044585 
L 690.752981 73.147131 
L 693.707392 67.76577 
L 696.661802 63.020589 
L 699.616213 58.055969 
L 702.570624 52.65407 
L 705.525035 51.905614 
L 708.479446 51.737638 
L 711.433857 50.170402 
L 714.388268 50.21787 
L 717.342679 50.504594 
L 720.29709 52.660623 
L 726.205912 53.905174 
L 729.160322 54.510748 
L 732.114733 55.779113 
L 735.069144 56.177076 
L 738.023555 57.745271 
L 740.977966 72.098684 
L 743.932377 74.232577 
L 746.886788 74.394719 
L 749.841199 74.346452 
L 752.79561 74.663224 
L 755.750021 74.814737 
L 758.704432 73.94801 
L 761.658842 69.364012 
L 767.567664 52.847937 
L 770.522075 52.051853 
L 773.476486 50.748406 
L 776.430897 50.34461 
L 779.385308 49.407481 
L 785.29413 49.215532 
L 788.248541 49.666556 
L 791.202951 53.743113 
L 794.157362 55.313066 
L 797.111773 53.555958 
L 800.066184 53.267955 
L 805.975006 54.64588 
L 808.929417 54.715643 
L 808.929417 54.715643 
" clip-path="url(#pdcafed6181)" style="fill: none; stroke: #0000ff; stroke-width: 3; stroke-linecap: square"/>
   </g>
   <g id="patch_3">
    <path d="M 67.52 81.304 
L 67.52 15.84 
" style="fill: none; stroke: #000000; stroke-width: 0.8; stroke-linejoin: miter; stroke-linecap: square"/>
   </g>
   <g id="patch_4">
    <path d="M 844.234627 81.304 
L 844.234627 15.84 
" style="fill: none; stroke: #000000; stroke-width: 0.8; stroke-linejoin: miter; stroke-linecap: square"/>
   </g>
   <g id="patch_5">
    <path d="M 67.52 81.304 
L 844.234627 81.304 
" style="fill: none; stroke: #000000; stroke-width: 0.8; stroke-linejoin: miter; stroke-linecap: square"/>
   </g>
   <g id="patch_6">
    <path d="M 67.52 15.84 
L 844.234627 15.84 
" style="fill: none; stroke: #000000; stroke-width: 0.8; stroke-linejoin: miter; stroke-linecap: square"/>
   </g>
   <g id="legend_1">
    <g id="patch_7">
     <path d="M 687.862752 38.518125 
L 837.234627 38.518125 
Q 839.234627 38.518125 839.234627 36.518125 
L 839.234627 22.84 
Q 839.234627 20.84 837.234627 20.84 
L 687.862752 20.84 
Q 685.862752 20.84 685.862752 22.84 
L 685.862752 36.518125 
Q 685.862752 38.518125 687.862752 38.518125 
z
" style="fill: #ffffff; opacity: 0.8; stroke: #cccccc; stroke-linejoin: miter"/>
    </g>
    <g id="line2d_20">
     <path d="M 689.862752 28.938437 
L 699.862752 28.938437 
L 709.862752 28.938437 
" style="fill: none; stroke: #0000ff; stroke-width: 3; stroke-linecap: square"/>
    </g>
    <g id="text_12">
     <!-- ANN Part Forecast Load -->
     <g transform="translate(717.862752 32.438437) scale(0.1 -0.1)">
      <use xlink:href="#DejaVuSans-41"/>
      <use xlink:href="#DejaVuSans-4e" x="68.408203"/>
      <use xlink:href="#DejaVuSans-4e" x="143.212891"/>
      <use xlink:href="#DejaVuSans-20" x="218.017578"/>
      <use xlink:href="#DejaVuSans-50" x="249.804688"/>
      <use xlink:href="#DejaVuSans-61" x="305.607422"/>
      <use xlink:href="#DejaVuSans-72" x="366.886719"/>
      <use xlink:href="#DejaVuSans-74" x="408"/>
      <use xlink:href="#DejaVuSans-20" x="447.208984"/>
      <use xlink:href="#DejaVuSans-46" x="478.996094"/>
      <use xlink:href="#DejaVuSans-6f" x="532.890625"/>
      <use xlink:href="#DejaVuSans-72" x="594.072266"/>
      <use xlink:href="#DejaVuSans-65" x="632.935547"/>
      <use xlink:href="#DejaVuSans-63" x="694.458984"/>
      <use xlink:href="#DejaVuSans-61" x="749.439453"/>
      <use xlink:href="#DejaVuSans-73" x="810.71875"/>
      <use xlink:href="#DejaVuSans-74" x="862.818359"/>
      <use xlink:href="#DejaVuSans-20" x="902.027344"/>
      <use xlink:href="#DejaVuSans-4c" x="933.814453"/>
      <use xlink:href="#DejaVuSans-6f" x="987.777344"/>
      <use xlink:href="#DejaVuSans-61" x="1048.958984"/>
      <use xlink:href="#DejaVuSans-64" x="1110.238281"/>
     </g>
    </g>
   </g>
  </g>
 </g>
 <defs>
  <clipPath id="pdcafed6181">
   <rect x="67.52" y="15.84" width="776.714627" height="65.464"/>
  </clipPath>
 </defs>
</svg>
