<?xml version="1.0" encoding="utf-8" standalone="no"?>
<!DOCTYPE svg PUBLIC "-//W3C//DTD SVG 1.1//EN"
  "http://www.w3.org/Graphics/SVG/1.1/DTD/svg11.dtd">
<svg xmlns:xlink="http://www.w3.org/1999/xlink" width="864pt" height="144pt" viewBox="0 0 864 144" xmlns="http://www.w3.org/2000/svg" version="1.1">
 <metadata>
  <rdf:RDF xmlns:dc="http://purl.org/dc/elements/1.1/" xmlns:cc="http://creativecommons.org/ns#" xmlns:rdf="http://www.w3.org/1999/02/22-rdf-syntax-ns#">
   <cc:Work>
    <dc:type rdf:resource="http://purl.org/dc/dcmitype/StillImage"/>
    <dc:date>2025-03-29T17:10:44.311248</dc:date>
    <dc:format>image/svg+xml</dc:format>
    <dc:creator>
     <cc:Agent>
      <dc:title>Matplotlib v3.6.2, https://matplotlib.org/</dc:title>
     </cc:Agent>
    </dc:creator>
   </cc:Work>
  </rdf:RDF>
 </metadata>
 <defs>
  <style type="text/css">*{stroke-linejoin: round; stroke-linecap: butt}</style>
 </defs>
 <g id="figure_1">
  <g id="patch_1">
   <path d="M 0 144 
L 864 144 
L 864 0 
L 0 0 
z
" style="fill: #ffffff"/>
  </g>
  <g id="axes_1">
   <g id="patch_2">
    <path d="M 65 81.304 
L 844.234627 81.304 
L 844.234627 10.8 
L 65 10.8 
z
" style="fill: #ffffff"/>
   </g>
   <g id="matplotlib.axis_1">
    <g id="xtick_1">
     <g id="line2d_1">
      <path d="M 100.419756 81.304 
L 100.419756 10.8 
" clip-path="url(#p8a0529709a)" style="fill: none; stroke: #b0b0b0; stroke-width: 0.8; stroke-linecap: square"/>
     </g>
     <g id="line2d_2">
      <defs>
       <path id="m7878179f95" d="M 0 0 
L 0 3.5 
" style="stroke: #000000; stroke-width: 0.8"/>
      </defs>
      <g>
       <use xlink:href="#m7878179f95" x="100.419756" y="81.304" style="stroke: #000000; stroke-width: 0.8"/>
      </g>
     </g>
     <g id="text_1">
      <!-- 0 -->
      <g transform="translate(96.602256 97.422125) scale(0.12 -0.12)">
       <defs>
        <path id="DejaVuSans-30" d="M 2034 4250 
Q 1547 4250 1301 3770 
Q 1056 3291 1056 2328 
Q 1056 1369 1301 889 
Q 1547 409 2034 409 
Q 2525 409 2770 889 
Q 3016 1369 3016 2328 
Q 3016 3291 2770 3770 
Q 2525 4250 2034 4250 
z
M 2034 4750 
Q 2819 4750 3233 4129 
Q 3647 3509 3647 2328 
Q 3647 1150 3233 529 
Q 2819 -91 2034 -91 
Q 1250 -91 836 529 
Q 422 1150 422 2328 
Q 422 3509 836 4129 
Q 1250 4750 2034 4750 
z
" transform="scale(0.015625)"/>
       </defs>
       <use xlink:href="#DejaVuSans-30"/>
      </g>
     </g>
    </g>
    <g id="xtick_2">
     <g id="line2d_3">
      <path d="M 248.619571 81.304 
L 248.619571 10.8 
" clip-path="url(#p8a0529709a)" style="fill: none; stroke: #b0b0b0; stroke-width: 0.8; stroke-linecap: square"/>
     </g>
     <g id="line2d_4">
      <g>
       <use xlink:href="#m7878179f95" x="248.619571" y="81.304" style="stroke: #000000; stroke-width: 0.8"/>
      </g>
     </g>
     <g id="text_2">
      <!-- 50 -->
      <g transform="translate(240.984571 97.422125) scale(0.12 -0.12)">
       <defs>
        <path id="DejaVuSans-35" d="M 691 4666 
L 3169 4666 
L 3169 4134 
L 1269 4134 
L 1269 2991 
Q 1406 3038 1543 3061 
Q 1681 3084 1819 3084 
Q 2600 3084 3056 2656 
Q 3513 2228 3513 1497 
Q 3513 744 3044 326 
Q 2575 -91 1722 -91 
Q 1428 -91 1123 -41 
Q 819 9 494 109 
L 494 744 
Q 775 591 1075 516 
Q 1375 441 1709 441 
Q 2250 441 2565 725 
Q 2881 1009 2881 1497 
Q 2881 1984 2565 2268 
Q 2250 2553 1709 2553 
Q 1456 2553 1204 2497 
Q 953 2441 691 2322 
L 691 4666 
z
" transform="scale(0.015625)"/>
       </defs>
       <use xlink:href="#DejaVuSans-35"/>
       <use xlink:href="#DejaVuSans-30" x="63.623047"/>
      </g>
     </g>
    </g>
    <g id="xtick_3">
     <g id="line2d_5">
      <path d="M 396.819386 81.304 
L 396.819386 10.8 
" clip-path="url(#p8a0529709a)" style="fill: none; stroke: #b0b0b0; stroke-width: 0.8; stroke-linecap: square"/>
     </g>
     <g id="line2d_6">
      <g>
       <use xlink:href="#m7878179f95" x="396.819386" y="81.304" style="stroke: #000000; stroke-width: 0.8"/>
      </g>
     </g>
     <g id="text_3">
      <!-- 100 -->
      <g transform="translate(385.366886 97.422125) scale(0.12 -0.12)">
       <defs>
        <path id="DejaVuSans-31" d="M 794 531 
L 1825 531 
L 1825 4091 
L 703 3866 
L 703 4441 
L 1819 4666 
L 2450 4666 
L 2450 531 
L 3481 531 
L 3481 0 
L 794 0 
L 794 531 
z
" transform="scale(0.015625)"/>
       </defs>
       <use xlink:href="#DejaVuSans-31"/>
       <use xlink:href="#DejaVuSans-30" x="63.623047"/>
       <use xlink:href="#DejaVuSans-30" x="127.246094"/>
      </g>
     </g>
    </g>
    <g id="xtick_4">
     <g id="line2d_7">
      <path d="M 545.019201 81.304 
L 545.019201 10.8 
" clip-path="url(#p8a0529709a)" style="fill: none; stroke: #b0b0b0; stroke-width: 0.8; stroke-linecap: square"/>
     </g>
     <g id="line2d_8">
      <g>
       <use xlink:href="#m7878179f95" x="545.019201" y="81.304" style="stroke: #000000; stroke-width: 0.8"/>
      </g>
     </g>
     <g id="text_4">
      <!-- 150 -->
      <g transform="translate(533.566701 97.422125) scale(0.12 -0.12)">
       <use xlink:href="#DejaVuSans-31"/>
       <use xlink:href="#DejaVuSans-35" x="63.623047"/>
       <use xlink:href="#DejaVuSans-30" x="127.246094"/>
      </g>
     </g>
    </g>
    <g id="xtick_5">
     <g id="line2d_9">
      <path d="M 693.219016 81.304 
L 693.219016 10.8 
" clip-path="url(#p8a0529709a)" style="fill: none; stroke: #b0b0b0; stroke-width: 0.8; stroke-linecap: square"/>
     </g>
     <g id="line2d_10">
      <g>
       <use xlink:href="#m7878179f95" x="693.219016" y="81.304" style="stroke: #000000; stroke-width: 0.8"/>
      </g>
     </g>
     <g id="text_5">
      <!-- 200 -->
      <g transform="translate(681.766516 97.422125) scale(0.12 -0.12)">
       <defs>
        <path id="DejaVuSans-32" d="M 1228 531 
L 3431 531 
L 3431 0 
L 469 0 
L 469 531 
Q 828 903 1448 1529 
Q 2069 2156 2228 2338 
Q 2531 2678 2651 2914 
Q 2772 3150 2772 3378 
Q 2772 3750 2511 3984 
Q 2250 4219 1831 4219 
Q 1534 4219 1204 4116 
Q 875 4013 500 3803 
L 500 4441 
Q 881 4594 1212 4672 
Q 1544 4750 1819 4750 
Q 2544 4750 2975 4387 
Q 3406 4025 3406 3419 
Q 3406 3131 3298 2873 
Q 3191 2616 2906 2266 
Q 2828 2175 2409 1742 
Q 1991 1309 1228 531 
z
" transform="scale(0.015625)"/>
       </defs>
       <use xlink:href="#DejaVuSans-32"/>
       <use xlink:href="#DejaVuSans-30" x="63.623047"/>
       <use xlink:href="#DejaVuSans-30" x="127.246094"/>
      </g>
     </g>
    </g>
    <g id="xtick_6">
     <g id="line2d_11">
      <path d="M 841.418831 81.304 
L 841.418831 10.8 
" clip-path="url(#p8a0529709a)" style="fill: none; stroke: #b0b0b0; stroke-width: 0.8; stroke-linecap: square"/>
     </g>
     <g id="line2d_12">
      <g>
       <use xlink:href="#m7878179f95" x="841.418831" y="81.304" style="stroke: #000000; stroke-width: 0.8"/>
      </g>
     </g>
     <g id="text_6">
      <!-- 250 -->
      <g transform="translate(829.966331 97.422125) scale(0.12 -0.12)">
       <use xlink:href="#DejaVuSans-32"/>
       <use xlink:href="#DejaVuSans-35" x="63.623047"/>
       <use xlink:href="#DejaVuSans-30" x="127.246094"/>
      </g>
     </g>
    </g>
    <g id="text_7">
     <!-- Hours  -->
     <g transform="translate(435.132314 113.035875) scale(0.12 -0.12)">
      <defs>
       <path id="DejaVuSans-48" d="M 628 4666 
L 1259 4666 
L 1259 2753 
L 3553 2753 
L 3553 4666 
L 4184 4666 
L 4184 0 
L 3553 0 
L 3553 2222 
L 1259 2222 
L 1259 0 
L 628 0 
L 628 4666 
z
" transform="scale(0.015625)"/>
       <path id="DejaVuSans-6f" d="M 1959 3097 
Q 1497 3097 1228 2736 
Q 959 2375 959 1747 
Q 959 1119 1226 758 
Q 1494 397 1959 397 
Q 2419 397 2687 759 
Q 2956 1122 2956 1747 
Q 2956 2369 2687 2733 
Q 2419 3097 1959 3097 
z
M 1959 3584 
Q 2709 3584 3137 3096 
Q 3566 2609 3566 1747 
Q 3566 888 3137 398 
Q 2709 -91 1959 -91 
Q 1206 -91 779 398 
Q 353 888 353 1747 
Q 353 2609 779 3096 
Q 1206 3584 1959 3584 
z
" transform="scale(0.015625)"/>
       <path id="DejaVuSans-75" d="M 544 1381 
L 544 3500 
L 1119 3500 
L 1119 1403 
Q 1119 906 1312 657 
Q 1506 409 1894 409 
Q 2359 409 2629 706 
Q 2900 1003 2900 1516 
L 2900 3500 
L 3475 3500 
L 3475 0 
L 2900 0 
L 2900 538 
Q 2691 219 2414 64 
Q 2138 -91 1772 -91 
Q 1169 -91 856 284 
Q 544 659 544 1381 
z
M 1991 3584 
L 1991 3584 
z
" transform="scale(0.015625)"/>
       <path id="DejaVuSans-72" d="M 2631 2963 
Q 2534 3019 2420 3045 
Q 2306 3072 2169 3072 
Q 1681 3072 1420 2755 
Q 1159 2438 1159 1844 
L 1159 0 
L 581 0 
L 581 3500 
L 1159 3500 
L 1159 2956 
Q 1341 3275 1631 3429 
Q 1922 3584 2338 3584 
Q 2397 3584 2469 3576 
Q 2541 3569 2628 3553 
L 2631 2963 
z
" transform="scale(0.015625)"/>
       <path id="DejaVuSans-73" d="M 2834 3397 
L 2834 2853 
Q 2591 2978 2328 3040 
Q 2066 3103 1784 3103 
Q 1356 3103 1142 2972 
Q 928 2841 928 2578 
Q 928 2378 1081 2264 
Q 1234 2150 1697 2047 
L 1894 2003 
Q 2506 1872 2764 1633 
Q 3022 1394 3022 966 
Q 3022 478 2636 193 
Q 2250 -91 1575 -91 
Q 1294 -91 989 -36 
Q 684 19 347 128 
L 347 722 
Q 666 556 975 473 
Q 1284 391 1588 391 
Q 1994 391 2212 530 
Q 2431 669 2431 922 
Q 2431 1156 2273 1281 
Q 2116 1406 1581 1522 
L 1381 1569 
Q 847 1681 609 1914 
Q 372 2147 372 2553 
Q 372 3047 722 3315 
Q 1072 3584 1716 3584 
Q 2034 3584 2315 3537 
Q 2597 3491 2834 3397 
z
" transform="scale(0.015625)"/>
       <path id="DejaVuSans-20" transform="scale(0.015625)"/>
      </defs>
      <use xlink:href="#DejaVuSans-48"/>
      <use xlink:href="#DejaVuSans-6f" x="75.195312"/>
      <use xlink:href="#DejaVuSans-75" x="136.376953"/>
      <use xlink:href="#DejaVuSans-72" x="199.755859"/>
      <use xlink:href="#DejaVuSans-73" x="240.869141"/>
      <use xlink:href="#DejaVuSans-20" x="292.96875"/>
     </g>
     <!--  (a) KAN Part Forecast Load at Epoch 1 -->
     <g transform="translate(338.740439 126.47325) scale(0.12 -0.12)">
      <defs>
       <path id="DejaVuSans-28" d="M 1984 4856 
Q 1566 4138 1362 3434 
Q 1159 2731 1159 2009 
Q 1159 1288 1364 580 
Q 1569 -128 1984 -844 
L 1484 -844 
Q 1016 -109 783 600 
Q 550 1309 550 2009 
Q 550 2706 781 3412 
Q 1013 4119 1484 4856 
L 1984 4856 
z
" transform="scale(0.015625)"/>
       <path id="DejaVuSans-61" d="M 2194 1759 
Q 1497 1759 1228 1600 
Q 959 1441 959 1056 
Q 959 750 1161 570 
Q 1363 391 1709 391 
Q 2188 391 2477 730 
Q 2766 1069 2766 1631 
L 2766 1759 
L 2194 1759 
z
M 3341 1997 
L 3341 0 
L 2766 0 
L 2766 531 
Q 2569 213 2275 61 
Q 1981 -91 1556 -91 
Q 1019 -91 701 211 
Q 384 513 384 1019 
Q 384 1609 779 1909 
Q 1175 2209 1959 2209 
L 2766 2209 
L 2766 2266 
Q 2766 2663 2505 2880 
Q 2244 3097 1772 3097 
Q 1472 3097 1187 3025 
Q 903 2953 641 2809 
L 641 3341 
Q 956 3463 1253 3523 
Q 1550 3584 1831 3584 
Q 2591 3584 2966 3190 
Q 3341 2797 3341 1997 
z
" transform="scale(0.015625)"/>
       <path id="DejaVuSans-29" d="M 513 4856 
L 1013 4856 
Q 1481 4119 1714 3412 
Q 1947 2706 1947 2009 
Q 1947 1309 1714 600 
Q 1481 -109 1013 -844 
L 513 -844 
Q 928 -128 1133 580 
Q 1338 1288 1338 2009 
Q 1338 2731 1133 3434 
Q 928 4138 513 4856 
z
" transform="scale(0.015625)"/>
       <path id="DejaVuSans-4b" d="M 628 4666 
L 1259 4666 
L 1259 2694 
L 3353 4666 
L 4166 4666 
L 1850 2491 
L 4331 0 
L 3500 0 
L 1259 2247 
L 1259 0 
L 628 0 
L 628 4666 
z
" transform="scale(0.015625)"/>
       <path id="DejaVuSans-41" d="M 2188 4044 
L 1331 1722 
L 3047 1722 
L 2188 4044 
z
M 1831 4666 
L 2547 4666 
L 4325 0 
L 3669 0 
L 3244 1197 
L 1141 1197 
L 716 0 
L 50 0 
L 1831 4666 
z
" transform="scale(0.015625)"/>
       <path id="DejaVuSans-4e" d="M 628 4666 
L 1478 4666 
L 3547 763 
L 3547 4666 
L 4159 4666 
L 4159 0 
L 3309 0 
L 1241 3903 
L 1241 0 
L 628 0 
L 628 4666 
z
" transform="scale(0.015625)"/>
       <path id="DejaVuSans-50" d="M 1259 4147 
L 1259 2394 
L 2053 2394 
Q 2494 2394 2734 2622 
Q 2975 2850 2975 3272 
Q 2975 3691 2734 3919 
Q 2494 4147 2053 4147 
L 1259 4147 
z
M 628 4666 
L 2053 4666 
Q 2838 4666 3239 4311 
Q 3641 3956 3641 3272 
Q 3641 2581 3239 2228 
Q 2838 1875 2053 1875 
L 1259 1875 
L 1259 0 
L 628 0 
L 628 4666 
z
" transform="scale(0.015625)"/>
       <path id="DejaVuSans-74" d="M 1172 4494 
L 1172 3500 
L 2356 3500 
L 2356 3053 
L 1172 3053 
L 1172 1153 
Q 1172 725 1289 603 
Q 1406 481 1766 481 
L 2356 481 
L 2356 0 
L 1766 0 
Q 1100 0 847 248 
Q 594 497 594 1153 
L 594 3053 
L 172 3053 
L 172 3500 
L 594 3500 
L 594 4494 
L 1172 4494 
z
" transform="scale(0.015625)"/>
       <path id="DejaVuSans-46" d="M 628 4666 
L 3309 4666 
L 3309 4134 
L 1259 4134 
L 1259 2759 
L 3109 2759 
L 3109 2228 
L 1259 2228 
L 1259 0 
L 628 0 
L 628 4666 
z
" transform="scale(0.015625)"/>
       <path id="DejaVuSans-65" d="M 3597 1894 
L 3597 1613 
L 953 1613 
Q 991 1019 1311 708 
Q 1631 397 2203 397 
Q 2534 397 2845 478 
Q 3156 559 3463 722 
L 3463 178 
Q 3153 47 2828 -22 
Q 2503 -91 2169 -91 
Q 1331 -91 842 396 
Q 353 884 353 1716 
Q 353 2575 817 3079 
Q 1281 3584 2069 3584 
Q 2775 3584 3186 3129 
Q 3597 2675 3597 1894 
z
M 3022 2063 
Q 3016 2534 2758 2815 
Q 2500 3097 2075 3097 
Q 1594 3097 1305 2825 
Q 1016 2553 972 2059 
L 3022 2063 
z
" transform="scale(0.015625)"/>
       <path id="DejaVuSans-63" d="M 3122 3366 
L 3122 2828 
Q 2878 2963 2633 3030 
Q 2388 3097 2138 3097 
Q 1578 3097 1268 2742 
Q 959 2388 959 1747 
Q 959 1106 1268 751 
Q 1578 397 2138 397 
Q 2388 397 2633 464 
Q 2878 531 3122 666 
L 3122 134 
Q 2881 22 2623 -34 
Q 2366 -91 2075 -91 
Q 1284 -91 818 406 
Q 353 903 353 1747 
Q 353 2603 823 3093 
Q 1294 3584 2113 3584 
Q 2378 3584 2631 3529 
Q 2884 3475 3122 3366 
z
" transform="scale(0.015625)"/>
       <path id="DejaVuSans-4c" d="M 628 4666 
L 1259 4666 
L 1259 531 
L 3531 531 
L 3531 0 
L 628 0 
L 628 4666 
z
" transform="scale(0.015625)"/>
       <path id="DejaVuSans-64" d="M 2906 2969 
L 2906 4863 
L 3481 4863 
L 3481 0 
L 2906 0 
L 2906 525 
Q 2725 213 2448 61 
Q 2172 -91 1784 -91 
Q 1150 -91 751 415 
Q 353 922 353 1747 
Q 353 2572 751 3078 
Q 1150 3584 1784 3584 
Q 2172 3584 2448 3432 
Q 2725 3281 2906 2969 
z
M 947 1747 
Q 947 1113 1208 752 
Q 1469 391 1925 391 
Q 2381 391 2643 752 
Q 2906 1113 2906 1747 
Q 2906 2381 2643 2742 
Q 2381 3103 1925 3103 
Q 1469 3103 1208 2742 
Q 947 2381 947 1747 
z
" transform="scale(0.015625)"/>
       <path id="DejaVuSans-45" d="M 628 4666 
L 3578 4666 
L 3578 4134 
L 1259 4134 
L 1259 2753 
L 3481 2753 
L 3481 2222 
L 1259 2222 
L 1259 531 
L 3634 531 
L 3634 0 
L 628 0 
L 628 4666 
z
" transform="scale(0.015625)"/>
       <path id="DejaVuSans-70" d="M 1159 525 
L 1159 -1331 
L 581 -1331 
L 581 3500 
L 1159 3500 
L 1159 2969 
Q 1341 3281 1617 3432 
Q 1894 3584 2278 3584 
Q 2916 3584 3314 3078 
Q 3713 2572 3713 1747 
Q 3713 922 3314 415 
Q 2916 -91 2278 -91 
Q 1894 -91 1617 61 
Q 1341 213 1159 525 
z
M 3116 1747 
Q 3116 2381 2855 2742 
Q 2594 3103 2138 3103 
Q 1681 3103 1420 2742 
Q 1159 2381 1159 1747 
Q 1159 1113 1420 752 
Q 1681 391 2138 391 
Q 2594 391 2855 752 
Q 3116 1113 3116 1747 
z
" transform="scale(0.015625)"/>
       <path id="DejaVuSans-68" d="M 3513 2113 
L 3513 0 
L 2938 0 
L 2938 2094 
Q 2938 2591 2744 2837 
Q 2550 3084 2163 3084 
Q 1697 3084 1428 2787 
Q 1159 2491 1159 1978 
L 1159 0 
L 581 0 
L 581 4863 
L 1159 4863 
L 1159 2956 
Q 1366 3272 1645 3428 
Q 1925 3584 2291 3584 
Q 2894 3584 3203 3211 
Q 3513 2838 3513 2113 
z
" transform="scale(0.015625)"/>
      </defs>
      <use xlink:href="#DejaVuSans-20"/>
      <use xlink:href="#DejaVuSans-28" x="31.787109"/>
      <use xlink:href="#DejaVuSans-61" x="70.800781"/>
      <use xlink:href="#DejaVuSans-29" x="132.080078"/>
      <use xlink:href="#DejaVuSans-20" x="171.09375"/>
      <use xlink:href="#DejaVuSans-4b" x="202.880859"/>
      <use xlink:href="#DejaVuSans-41" x="266.707031"/>
      <use xlink:href="#DejaVuSans-4e" x="335.115234"/>
      <use xlink:href="#DejaVuSans-20" x="409.919922"/>
      <use xlink:href="#DejaVuSans-50" x="441.707031"/>
      <use xlink:href="#DejaVuSans-61" x="497.509766"/>
      <use xlink:href="#DejaVuSans-72" x="558.789062"/>
      <use xlink:href="#DejaVuSans-74" x="599.902344"/>
      <use xlink:href="#DejaVuSans-20" x="639.111328"/>
      <use xlink:href="#DejaVuSans-46" x="670.898438"/>
      <use xlink:href="#DejaVuSans-6f" x="724.792969"/>
      <use xlink:href="#DejaVuSans-72" x="785.974609"/>
      <use xlink:href="#DejaVuSans-65" x="824.837891"/>
      <use xlink:href="#DejaVuSans-63" x="886.361328"/>
      <use xlink:href="#DejaVuSans-61" x="941.341797"/>
      <use xlink:href="#DejaVuSans-73" x="1002.621094"/>
      <use xlink:href="#DejaVuSans-74" x="1054.720703"/>
      <use xlink:href="#DejaVuSans-20" x="1093.929688"/>
      <use xlink:href="#DejaVuSans-4c" x="1125.716797"/>
      <use xlink:href="#DejaVuSans-6f" x="1179.679688"/>
      <use xlink:href="#DejaVuSans-61" x="1240.861328"/>
      <use xlink:href="#DejaVuSans-64" x="1302.140625"/>
      <use xlink:href="#DejaVuSans-20" x="1365.617188"/>
      <use xlink:href="#DejaVuSans-61" x="1397.404297"/>
      <use xlink:href="#DejaVuSans-74" x="1458.683594"/>
      <use xlink:href="#DejaVuSans-20" x="1497.892578"/>
      <use xlink:href="#DejaVuSans-45" x="1529.679688"/>
      <use xlink:href="#DejaVuSans-70" x="1592.863281"/>
      <use xlink:href="#DejaVuSans-6f" x="1656.339844"/>
      <use xlink:href="#DejaVuSans-63" x="1717.521484"/>
      <use xlink:href="#DejaVuSans-68" x="1772.501953"/>
      <use xlink:href="#DejaVuSans-20" x="1835.880859"/>
      <use xlink:href="#DejaVuSans-31" x="1867.667969"/>
     </g>
    </g>
   </g>
   <g id="matplotlib.axis_2">
    <g id="ytick_1">
     <g id="line2d_13">
      <path d="M 65 59.13252 
L 844.234627 59.13252 
" clip-path="url(#p8a0529709a)" style="fill: none; stroke: #b0b0b0; stroke-width: 0.8; stroke-linecap: square"/>
     </g>
     <g id="line2d_14">
      <defs>
       <path id="mf9e4abffaf" d="M 0 0 
L -3.5 0 
" style="stroke: #000000; stroke-width: 0.8"/>
      </defs>
      <g>
       <use xlink:href="#mf9e4abffaf" x="65" y="59.13252" style="stroke: #000000; stroke-width: 0.8"/>
      </g>
     </g>
     <g id="text_8">
      <!-- 7000 -->
      <g transform="translate(27.46 63.691582) scale(0.12 -0.12)">
       <defs>
        <path id="DejaVuSans-37" d="M 525 4666 
L 3525 4666 
L 3525 4397 
L 1831 0 
L 1172 0 
L 2766 4134 
L 525 4134 
L 525 4666 
z
" transform="scale(0.015625)"/>
       </defs>
       <use xlink:href="#DejaVuSans-37"/>
       <use xlink:href="#DejaVuSans-30" x="63.623047"/>
       <use xlink:href="#DejaVuSans-30" x="127.246094"/>
       <use xlink:href="#DejaVuSans-30" x="190.869141"/>
      </g>
     </g>
    </g>
    <g id="ytick_2">
     <g id="line2d_15">
      <path d="M 65 36.5799 
L 844.234627 36.5799 
" clip-path="url(#p8a0529709a)" style="fill: none; stroke: #b0b0b0; stroke-width: 0.8; stroke-linecap: square"/>
     </g>
     <g id="line2d_16">
      <g>
       <use xlink:href="#mf9e4abffaf" x="65" y="36.5799" style="stroke: #000000; stroke-width: 0.8"/>
      </g>
     </g>
     <g id="text_9">
      <!-- 8000 -->
      <g transform="translate(27.46 41.138963) scale(0.12 -0.12)">
       <defs>
        <path id="DejaVuSans-38" d="M 2034 2216 
Q 1584 2216 1326 1975 
Q 1069 1734 1069 1313 
Q 1069 891 1326 650 
Q 1584 409 2034 409 
Q 2484 409 2743 651 
Q 3003 894 3003 1313 
Q 3003 1734 2745 1975 
Q 2488 2216 2034 2216 
z
M 1403 2484 
Q 997 2584 770 2862 
Q 544 3141 544 3541 
Q 544 4100 942 4425 
Q 1341 4750 2034 4750 
Q 2731 4750 3128 4425 
Q 3525 4100 3525 3541 
Q 3525 3141 3298 2862 
Q 3072 2584 2669 2484 
Q 3125 2378 3379 2068 
Q 3634 1759 3634 1313 
Q 3634 634 3220 271 
Q 2806 -91 2034 -91 
Q 1263 -91 848 271 
Q 434 634 434 1313 
Q 434 1759 690 2068 
Q 947 2378 1403 2484 
z
M 1172 3481 
Q 1172 3119 1398 2916 
Q 1625 2713 2034 2713 
Q 2441 2713 2670 2916 
Q 2900 3119 2900 3481 
Q 2900 3844 2670 4047 
Q 2441 4250 2034 4250 
Q 1625 4250 1398 4047 
Q 1172 3844 1172 3481 
z
" transform="scale(0.015625)"/>
       </defs>
       <use xlink:href="#DejaVuSans-38"/>
       <use xlink:href="#DejaVuSans-30" x="63.623047"/>
       <use xlink:href="#DejaVuSans-30" x="127.246094"/>
       <use xlink:href="#DejaVuSans-30" x="190.869141"/>
      </g>
     </g>
    </g>
    <g id="ytick_3">
     <g id="line2d_17">
      <path d="M 65 14.027281 
L 844.234627 14.027281 
" clip-path="url(#p8a0529709a)" style="fill: none; stroke: #b0b0b0; stroke-width: 0.8; stroke-linecap: square"/>
     </g>
     <g id="line2d_18">
      <g>
       <use xlink:href="#mf9e4abffaf" x="65" y="14.027281" style="stroke: #000000; stroke-width: 0.8"/>
      </g>
     </g>
     <g id="text_10">
      <!-- 9000 -->
      <g transform="translate(27.46 18.586343) scale(0.12 -0.12)">
       <defs>
        <path id="DejaVuSans-39" d="M 703 97 
L 703 672 
Q 941 559 1184 500 
Q 1428 441 1663 441 
Q 2288 441 2617 861 
Q 2947 1281 2994 2138 
Q 2813 1869 2534 1725 
Q 2256 1581 1919 1581 
Q 1219 1581 811 2004 
Q 403 2428 403 3163 
Q 403 3881 828 4315 
Q 1253 4750 1959 4750 
Q 2769 4750 3195 4129 
Q 3622 3509 3622 2328 
Q 3622 1225 3098 567 
Q 2575 -91 1691 -91 
Q 1453 -91 1209 -44 
Q 966 3 703 97 
z
M 1959 2075 
Q 2384 2075 2632 2365 
Q 2881 2656 2881 3163 
Q 2881 3666 2632 3958 
Q 2384 4250 1959 4250 
Q 1534 4250 1286 3958 
Q 1038 3666 1038 3163 
Q 1038 2656 1286 2365 
Q 1534 2075 1959 2075 
z
" transform="scale(0.015625)"/>
       </defs>
       <use xlink:href="#DejaVuSans-39"/>
       <use xlink:href="#DejaVuSans-30" x="63.623047"/>
       <use xlink:href="#DejaVuSans-30" x="127.246094"/>
       <use xlink:href="#DejaVuSans-30" x="190.869141"/>
      </g>
     </g>
    </g>
    <g id="text_11">
     <!-- MW -->
     <g transform="translate(20.964375 57.161375) rotate(-90) scale(0.12 -0.12)">
      <defs>
       <path id="DejaVuSans-4d" d="M 628 4666 
L 1569 4666 
L 2759 1491 
L 3956 4666 
L 4897 4666 
L 4897 0 
L 4281 0 
L 4281 4097 
L 3078 897 
L 2444 897 
L 1241 4097 
L 1241 0 
L 628 0 
L 628 4666 
z
" transform="scale(0.015625)"/>
       <path id="DejaVuSans-57" d="M 213 4666 
L 850 4666 
L 1831 722 
L 2809 4666 
L 3519 4666 
L 4500 722 
L 5478 4666 
L 6119 4666 
L 4947 0 
L 4153 0 
L 3169 4050 
L 2175 0 
L 1381 0 
L 213 4666 
z
" transform="scale(0.015625)"/>
      </defs>
      <use xlink:href="#DejaVuSans-4d"/>
      <use xlink:href="#DejaVuSans-57" x="86.279297"/>
     </g>
    </g>
   </g>
   <g id="line2d_19">
    <path d="M 100.419756 61.500545 
L 103.383752 60.16994 
L 106.347748 60.869072 
L 109.311745 61.004387 
L 112.275741 65.266833 
L 115.239737 59.493362 
L 118.203734 43.481002 
L 121.16773 28.325642 
L 124.131726 19.169278 
L 130.059719 18.853542 
L 133.023715 19.417356 
L 135.987711 28.438404 
L 138.951708 27.446089 
L 141.915704 33.21956 
L 144.8797 35.294401 
L 147.843697 35.903321 
L 150.807693 35.407164 
L 153.771689 24.965302 
L 156.735685 26.995037 
L 159.699682 38.203689 
L 162.663678 46.615816 
L 165.627674 51.103787 
L 168.591671 60.395467 
L 171.555667 60.372914 
L 174.519663 59.763993 
L 177.48366 61.613308 
L 180.447656 65.154069 
L 183.411652 67.612305 
L 186.375648 60.07973 
L 189.339645 47.3375 
L 192.303641 32.588087 
L 195.267637 22.371749 
L 198.231634 21.650067 
L 201.19563 18.943751 
L 204.159626 19.214384 
L 207.123623 27.243117 
L 210.087619 24.130855 
L 213.051615 26.6793 
L 216.015611 26.250801 
L 218.979608 22.484514 
L 221.943604 22.123672 
L 224.9076 18.222069 
L 227.871597 23.724907 
L 233.799589 44.518422 
L 236.763586 49.615314 
L 239.727582 56.990021 
L 242.691578 50.60763 
L 245.655574 48.1945 
L 248.619571 49.976156 
L 251.583567 50.900814 
L 254.547563 54.351364 
L 257.51156 47.85621 
L 260.475556 43.278028 
L 263.439552 29.633694 
L 266.403549 19.169278 
L 269.367545 17.342516 
L 272.331541 15.13236 
L 275.295537 14.004727 
L 278.259534 20.093935 
L 281.22353 18.15441 
L 284.187526 21.604961 
L 287.151523 22.439408 
L 290.115519 23.815119 
L 293.079515 26.611642 
L 296.043512 19.890961 
L 299.007508 22.213881 
L 301.971504 33.264666 
L 304.9355 42.872081 
L 307.899497 47.247289 
L 310.863493 54.351364 
L 313.827489 56.696837 
L 316.791486 52.59226 
L 319.755482 48.081736 
L 322.719478 50.494867 
L 325.683475 52.118655 
L 328.647471 54.125838 
L 331.611467 43.052502 
L 334.575463 30.828983 
L 337.53946 22.439408 
L 340.503456 20.499883 
L 343.467452 18.15441 
L 346.431449 19.642883 
L 349.395445 25.574222 
L 352.359441 25.371248 
L 355.323438 28.14522 
L 358.287434 32.00172 
L 361.25143 34.59527 
L 364.215426 33.535296 
L 367.179423 26.363564 
L 370.143419 29.317957 
L 373.107415 40.098109 
L 376.071412 48.80342 
L 379.035408 53.291391 
L 381.999404 58.906994 
L 384.963401 62.49286 
L 387.927397 63.034123 
L 390.891393 53.44926 
L 396.819386 62.40265 
L 402.747378 58.591257 
L 405.711375 66.574884 
L 408.675371 59.538467 
L 411.639367 50.336998 
L 414.603364 45.44308 
L 417.56736 42.240608 
L 420.531356 39.714715 
L 423.495352 40.120662 
L 426.459349 45.646053 
L 429.423345 45.691159 
L 432.387341 44.563527 
L 435.351338 49.006394 
L 438.315334 41.13553 
L 441.27933 41.631687 
L 444.243327 51.464629 
L 447.207323 57.734258 
L 450.171319 60.282703 
L 453.135315 61.02694 
L 456.099312 63.056676 
L 459.063308 60.260151 
L 462.027304 61.658413 
L 464.991301 65.898306 
L 467.955297 70.83733 
L 470.919293 70.228408 
L 473.88329 78.099273 
L 476.847286 74.242776 
L 479.811282 65.379595 
L 482.775278 65.717884 
L 485.739275 57.373416 
L 488.703271 52.118655 
L 491.667267 50.810603 
L 494.631264 54.82497 
L 497.59526 59.448257 
L 500.559256 60.215046 
L 503.523253 58.27552 
L 506.487249 55.43389 
L 509.451245 50.404656 
L 512.415241 46.683474 
L 515.379238 54.757312 
L 518.343234 61.004387 
L 521.30723 63.530281 
L 524.271227 68.356541 
L 527.235223 67.341674 
L 530.199219 63.552834 
L 533.163216 59.380598 
L 536.127212 57.824468 
L 539.091208 61.342677 
L 542.055204 55.997706 
L 545.019201 45.894132 
L 547.983197 31.640877 
L 550.947193 23.74746 
L 553.91119 23.972987 
L 556.875186 24.784881 
L 559.839182 23.657248 
L 562.803179 30.964298 
L 565.767175 32.114482 
L 568.731171 33.715717 
L 571.695167 36.827979 
L 574.659164 34.956111 
L 577.62316 34.347191 
L 580.587156 24.829985 
L 583.551153 25.078065 
L 586.515149 35.587585 
L 589.479145 44.315449 
L 592.443142 49.953604 
L 595.407138 54.621996 
L 598.371134 53.404154 
L 601.33513 52.050997 
L 604.299127 52.59226 
L 607.263123 54.599443 
L 610.227119 57.75681 
L 613.191116 48.848525 
L 616.155112 43.63887 
L 619.119108 29.09243 
L 622.083105 19.507568 
L 625.047101 18.740779 
L 628.011097 16.914015 
L 630.975093 15.493202 
L 633.93909 22.958119 
L 636.903086 22.664935 
L 639.867082 26.002721 
L 642.831079 28.686484 
L 645.795075 30.535797 
L 648.759071 32.971482 
L 651.723068 25.168274 
L 654.687064 24.739775 
L 657.65106 34.730586 
L 660.615056 42.759318 
L 663.579053 44.022264 
L 666.543049 47.472815 
L 669.507045 60.463124 
L 672.471042 55.501548 
L 675.435038 55.43389 
L 678.399034 61.365229 
L 681.363031 63.079229 
L 684.327027 54.464128 
L 687.291023 45.037133 
L 690.255019 31.370244 
L 693.219016 22.980672 
L 696.183012 23.950434 
L 699.147008 23.679801 
L 702.111005 24.987853 
L 705.075001 33.422534 
L 708.038997 35.339506 
L 711.002994 39.782372 
L 713.96699 43.503555 
L 716.930986 44.698843 
L 719.894982 43.571213 
L 722.858979 32.182139 
L 725.822975 30.828983 
L 728.786971 41.13553 
L 731.750968 48.420025 
L 734.714964 54.982838 
L 737.67896 61.816282 
L 740.642957 58.974651 
L 746.570949 59.921861 
L 749.534945 63.485176 
L 752.498942 65.176622 
L 755.462938 57.350863 
L 758.426934 41.518924 
L 761.390931 27.987352 
L 764.354927 22.078566 
L 767.318923 24.559354 
L 770.28292 25.641879 
L 773.246916 27.01759 
L 776.210912 36.692664 
L 779.174908 36.647558 
L 782.138905 38.722399 
L 785.102901 43.007397 
L 788.066897 44.608633 
L 791.030894 44.879265 
L 793.99489 33.535296 
L 796.958886 29.024773 
L 799.922883 38.744952 
L 802.886879 47.585579 
L 805.850875 52.840339 
L 808.814871 61.838834 
L 808.814871 61.838834 
" clip-path="url(#p8a0529709a)" style="fill: none; stroke: #000000; stroke-width: 3; stroke-linecap: square"/>
   </g>
   <g id="line2d_20">
    <path d="M 100.419756 48.928638 
L 103.383752 49.663349 
L 106.347748 49.078038 
L 109.311745 48.761817 
L 115.239737 45.011871 
L 118.203734 42.748119 
L 121.16773 39.037101 
L 124.131726 33.318448 
L 127.095722 27.232765 
L 130.059719 25.900927 
L 133.023715 24.25148 
L 135.987711 24.000142 
L 138.951708 23.484955 
L 141.915704 23.851391 
L 144.8797 25.114052 
L 147.843697 27.352113 
L 150.807693 29.006471 
L 153.771689 32.22284 
L 156.735685 34.31824 
L 159.699682 38.964972 
L 162.663678 41.069744 
L 165.627674 44.146502 
L 168.591671 46.041319 
L 171.555667 51.601421 
L 177.48366 53.350405 
L 180.447656 53.361703 
L 183.411652 52.423038 
L 189.339645 48.879117 
L 192.303641 46.083319 
L 195.267637 41.89319 
L 198.231634 38.144687 
L 201.19563 35.282926 
L 204.159626 33.932853 
L 207.123623 32.402413 
L 210.087619 31.411496 
L 213.051615 30.635039 
L 216.015611 30.545269 
L 218.979608 29.135862 
L 221.943604 31.458694 
L 224.9076 32.993021 
L 227.871597 36.337669 
L 230.835593 38.683053 
L 233.799589 41.314189 
L 236.763586 42.420126 
L 239.727582 46.557827 
L 242.691578 51.318423 
L 245.655574 51.251348 
L 248.619571 50.121559 
L 251.583567 48.429958 
L 254.547563 45.598845 
L 257.51156 43.214632 
L 260.475556 42.066651 
L 263.439552 40.709408 
L 266.403549 36.57533 
L 269.367545 34.84859 
L 272.331541 31.720824 
L 275.295537 30.590726 
L 278.259534 28.344979 
L 281.22353 27.210102 
L 284.187526 26.866174 
L 287.151523 27.28146 
L 290.115519 29.756411 
L 293.079515 32.908448 
L 296.043512 36.604127 
L 299.007508 39.063133 
L 301.971504 43.27892 
L 304.9355 48.500413 
L 307.899497 51.479099 
L 310.863493 54.198881 
L 313.827489 61.814586 
L 316.791486 61.596878 
L 322.719478 57.279362 
L 325.683475 54.9475 
L 328.647471 53.865382 
L 331.611467 51.008533 
L 334.575463 47.801679 
L 337.53946 44.347505 
L 340.503456 42.877433 
L 343.467452 41.044361 
L 349.395445 36.919654 
L 352.359441 35.422504 
L 355.323438 35.577333 
L 358.287434 37.083634 
L 361.25143 39.283054 
L 364.215426 42.25402 
L 367.179423 43.405625 
L 376.071412 53.10052 
L 379.035408 55.8526 
L 381.999404 57.601166 
L 384.963401 66.673067 
L 387.927397 65.589518 
L 390.891393 67.957917 
L 393.855389 67.773884 
L 396.819386 67.428591 
L 399.783382 66.330197 
L 402.747378 63.354507 
L 405.711375 61.286438 
L 411.639367 56.349628 
L 414.603364 54.05698 
L 417.56736 52.752926 
L 420.531356 51.15006 
L 423.495352 50.087488 
L 426.459349 50.086199 
L 429.423345 50.472556 
L 432.387341 52.119811 
L 441.27933 53.792042 
L 444.243327 56.755509 
L 447.207323 57.797863 
L 450.171319 62.686 
L 453.135315 65.550359 
L 456.099312 72.068583 
L 459.063308 72.172471 
L 462.027304 72.657793 
L 464.991301 71.409822 
L 467.955297 69.307374 
L 470.919293 67.420773 
L 473.88329 63.97891 
L 482.775278 57.210339 
L 485.739275 54.63227 
L 488.703271 50.948353 
L 491.667267 49.618585 
L 494.631264 46.933116 
L 497.59526 46.642586 
L 500.559256 47.502548 
L 503.523253 48.855683 
L 506.487249 51.236614 
L 509.451245 53.975778 
L 512.415241 55.929002 
L 515.379238 58.105065 
L 518.343234 63.864551 
L 521.30723 65.230085 
L 524.271227 67.817404 
L 527.235223 56.084558 
L 530.199219 54.823042 
L 533.163216 54.254205 
L 536.127212 52.210639 
L 539.091208 51.150522 
L 542.055204 47.534648 
L 545.019201 44.41307 
L 547.983197 40.993948 
L 550.947193 39.454159 
L 553.91119 36.99806 
L 556.875186 35.423781 
L 559.839182 34.768015 
L 562.803179 31.995067 
L 565.767175 31.168042 
L 568.731171 30.040301 
L 571.695167 30.489129 
L 574.659164 31.11089 
L 577.62316 34.042576 
L 580.587156 36.076739 
L 583.551153 38.89281 
L 586.515149 42.877631 
L 589.479145 46.449711 
L 592.443142 50.282092 
L 595.407138 53.68723 
L 598.371134 54.717558 
L 601.33513 55.064712 
L 604.299127 53.587439 
L 607.263123 53.624692 
L 610.227119 52.013083 
L 616.155112 47.073443 
L 619.119108 43.504116 
L 628.011097 29.922891 
L 630.975093 27.458093 
L 633.93909 26.531761 
L 636.903086 26.191049 
L 639.867082 25.151559 
L 642.831079 25.613359 
L 645.795075 26.370061 
L 648.759071 28.737557 
L 651.723068 31.593283 
L 654.687064 34.19256 
L 657.65106 36.366146 
L 660.615056 39.556989 
L 663.579053 42.402154 
L 666.543049 44.497202 
L 669.507045 48.300677 
L 678.399034 47.258092 
L 681.363031 45.171843 
L 684.327027 41.871705 
L 690.255019 36.798048 
L 693.219016 35.794776 
L 696.183012 33.133446 
L 699.147008 31.754961 
L 702.111005 30.839246 
L 705.075001 29.802133 
L 708.038997 29.67261 
L 711.002994 30.543022 
L 713.96699 30.941261 
L 716.930986 31.608655 
L 719.894982 34.211193 
L 722.858979 35.109102 
L 725.822975 37.79185 
L 728.786971 40.767122 
L 734.714964 44.616661 
L 737.67896 46.221365 
L 740.642957 52.861108 
L 743.606953 52.430527 
L 752.498942 48.529177 
L 755.462938 46.067109 
L 758.426934 43.923718 
L 761.390931 41.513594 
L 764.354927 37.287654 
L 767.318923 37.481256 
L 770.28292 35.62551 
L 773.246916 34.621699 
L 776.210912 33.240108 
L 779.174908 33.892494 
L 782.138905 33.70377 
L 785.102901 34.739153 
L 788.066897 36.712716 
L 791.030894 40.200047 
L 793.99489 41.043414 
L 796.958886 44.121769 
L 799.922883 46.786987 
L 802.886879 48.591516 
L 805.850875 51.850689 
L 808.814871 53.984334 
L 808.814871 53.984334 
" clip-path="url(#p8a0529709a)" style="fill: none; stroke: #ff0000; stroke-width: 3; stroke-linecap: square"/>
   </g>
   <g id="patch_3">
    <path d="M 65 81.304 
L 65 10.8 
" style="fill: none; stroke: #000000; stroke-width: 0.8; stroke-linejoin: miter; stroke-linecap: square"/>
   </g>
   <g id="patch_4">
    <path d="M 844.234627 81.304 
L 844.234627 10.8 
" style="fill: none; stroke: #000000; stroke-width: 0.8; stroke-linejoin: miter; stroke-linecap: square"/>
   </g>
   <g id="patch_5">
    <path d="M 65 81.304 
L 844.234627 81.304 
" style="fill: none; stroke: #000000; stroke-width: 0.8; stroke-linejoin: miter; stroke-linecap: square"/>
   </g>
   <g id="patch_6">
    <path d="M 65 10.8 
L 844.234627 10.8 
" style="fill: none; stroke: #000000; stroke-width: 0.8; stroke-linejoin: miter; stroke-linecap: square"/>
   </g>
   <g id="legend_1">
    <g id="patch_7">
     <path d="M 380.480595 48.15625 
L 528.754032 48.15625 
Q 530.754032 48.15625 530.754032 46.15625 
L 530.754032 17.8 
Q 530.754032 15.8 528.754032 15.8 
L 380.480595 15.8 
Q 378.480595 15.8 378.480595 17.8 
L 378.480595 46.15625 
Q 378.480595 48.15625 380.480595 48.15625 
z
" style="fill: #ffffff; opacity: 0.8; stroke: #cccccc; stroke-linejoin: miter"/>
    </g>
    <g id="line2d_21">
     <path d="M 382.480595 23.898438 
L 392.480595 23.898438 
L 402.480595 23.898438 
" style="fill: none; stroke: #000000; stroke-width: 3; stroke-linecap: square"/>
    </g>
    <g id="text_12">
     <!-- Actual Load -->
     <g transform="translate(410.480595 27.398438) scale(0.1 -0.1)">
      <defs>
       <path id="DejaVuSans-6c" d="M 603 4863 
L 1178 4863 
L 1178 0 
L 603 0 
L 603 4863 
z
" transform="scale(0.015625)"/>
      </defs>
      <use xlink:href="#DejaVuSans-41"/>
      <use xlink:href="#DejaVuSans-63" x="66.658203"/>
      <use xlink:href="#DejaVuSans-74" x="121.638672"/>
      <use xlink:href="#DejaVuSans-75" x="160.847656"/>
      <use xlink:href="#DejaVuSans-61" x="224.226562"/>
      <use xlink:href="#DejaVuSans-6c" x="285.505859"/>
      <use xlink:href="#DejaVuSans-20" x="313.289062"/>
      <use xlink:href="#DejaVuSans-4c" x="345.076172"/>
      <use xlink:href="#DejaVuSans-6f" x="399.039062"/>
      <use xlink:href="#DejaVuSans-61" x="460.220703"/>
      <use xlink:href="#DejaVuSans-64" x="521.5"/>
     </g>
    </g>
    <g id="line2d_22">
     <path d="M 382.480595 38.576563 
L 392.480595 38.576563 
L 402.480595 38.576563 
" style="fill: none; stroke: #ff0000; stroke-width: 3; stroke-linecap: square"/>
    </g>
    <g id="text_13">
     <!-- KAN Part Forecast Load -->
     <g transform="translate(410.480595 42.076563) scale(0.1 -0.1)">
      <use xlink:href="#DejaVuSans-4b"/>
      <use xlink:href="#DejaVuSans-41" x="63.826172"/>
      <use xlink:href="#DejaVuSans-4e" x="132.234375"/>
      <use xlink:href="#DejaVuSans-20" x="207.039062"/>
      <use xlink:href="#DejaVuSans-50" x="238.826172"/>
      <use xlink:href="#DejaVuSans-61" x="294.628906"/>
      <use xlink:href="#DejaVuSans-72" x="355.908203"/>
      <use xlink:href="#DejaVuSans-74" x="397.021484"/>
      <use xlink:href="#DejaVuSans-20" x="436.230469"/>
      <use xlink:href="#DejaVuSans-46" x="468.017578"/>
      <use xlink:href="#DejaVuSans-6f" x="521.912109"/>
      <use xlink:href="#DejaVuSans-72" x="583.09375"/>
      <use xlink:href="#DejaVuSans-65" x="621.957031"/>
      <use xlink:href="#DejaVuSans-63" x="683.480469"/>
      <use xlink:href="#DejaVuSans-61" x="738.460938"/>
      <use xlink:href="#DejaVuSans-73" x="799.740234"/>
      <use xlink:href="#DejaVuSans-74" x="851.839844"/>
      <use xlink:href="#DejaVuSans-20" x="891.048828"/>
      <use xlink:href="#DejaVuSans-4c" x="922.835938"/>
      <use xlink:href="#DejaVuSans-6f" x="976.798828"/>
      <use xlink:href="#DejaVuSans-61" x="1037.980469"/>
      <use xlink:href="#DejaVuSans-64" x="1099.259766"/>
     </g>
    </g>
   </g>
  </g>
 </g>
 <defs>
  <clipPath id="p8a0529709a">
   <rect x="65" y="10.8" width="779.234627" height="70.504"/>
  </clipPath>
 </defs>
</svg>
