<?xml version="1.0" encoding="utf-8" standalone="no"?>
<!DOCTYPE svg PUBLIC "-//W3C//DTD SVG 1.1//EN"
  "http://www.w3.org/Graphics/SVG/1.1/DTD/svg11.dtd">
<svg xmlns:xlink="http://www.w3.org/1999/xlink" width="864pt" height="144pt" viewBox="0 0 864 144" xmlns="http://www.w3.org/2000/svg" version="1.1">
 <metadata>
  <rdf:RDF xmlns:dc="http://purl.org/dc/elements/1.1/" xmlns:cc="http://creativecommons.org/ns#" xmlns:rdf="http://www.w3.org/1999/02/22-rdf-syntax-ns#">
   <cc:Work>
    <dc:type rdf:resource="http://purl.org/dc/dcmitype/StillImage"/>
    <dc:date>2025-03-29T17:10:45.796511</dc:date>
    <dc:format>image/svg+xml</dc:format>
    <dc:creator>
     <cc:Agent>
      <dc:title>Matplotlib v3.6.2, https://matplotlib.org/</dc:title>
     </cc:Agent>
    </dc:creator>
   </cc:Work>
  </rdf:RDF>
 </metadata>
 <defs>
  <style type="text/css">*{stroke-linejoin: round; stroke-linecap: butt}</style>
 </defs>
 <g id="figure_1">
  <g id="patch_1">
   <path d="M 0 144 
L 864 144 
L 864 0 
L 0 0 
z
" style="fill: #ffffff"/>
  </g>
  <g id="axes_1">
   <g id="patch_2">
    <path d="M 65 81.304 
L 844.234627 81.304 
L 844.234627 10.8 
L 65 10.8 
z
" style="fill: #ffffff"/>
   </g>
   <g id="matplotlib.axis_1">
    <g id="xtick_1">
     <g id="line2d_1">
      <path d="M 100.419756 81.304 
L 100.419756 10.8 
" clip-path="url(#p0af3bcd567)" style="fill: none; stroke: #b0b0b0; stroke-width: 0.8; stroke-linecap: square"/>
     </g>
     <g id="line2d_2">
      <defs>
       <path id="m81eed7b9e8" d="M 0 0 
L 0 3.5 
" style="stroke: #000000; stroke-width: 0.8"/>
      </defs>
      <g>
       <use xlink:href="#m81eed7b9e8" x="100.419756" y="81.304" style="stroke: #000000; stroke-width: 0.8"/>
      </g>
     </g>
     <g id="text_1">
      <!-- 0 -->
      <g transform="translate(96.602256 97.422125) scale(0.12 -0.12)">
       <defs>
        <path id="DejaVuSans-30" d="M 2034 4250 
Q 1547 4250 1301 3770 
Q 1056 3291 1056 2328 
Q 1056 1369 1301 889 
Q 1547 409 2034 409 
Q 2525 409 2770 889 
Q 3016 1369 3016 2328 
Q 3016 3291 2770 3770 
Q 2525 4250 2034 4250 
z
M 2034 4750 
Q 2819 4750 3233 4129 
Q 3647 3509 3647 2328 
Q 3647 1150 3233 529 
Q 2819 -91 2034 -91 
Q 1250 -91 836 529 
Q 422 1150 422 2328 
Q 422 3509 836 4129 
Q 1250 4750 2034 4750 
z
" transform="scale(0.015625)"/>
       </defs>
       <use xlink:href="#DejaVuSans-30"/>
      </g>
     </g>
    </g>
    <g id="xtick_2">
     <g id="line2d_3">
      <path d="M 248.619571 81.304 
L 248.619571 10.8 
" clip-path="url(#p0af3bcd567)" style="fill: none; stroke: #b0b0b0; stroke-width: 0.8; stroke-linecap: square"/>
     </g>
     <g id="line2d_4">
      <g>
       <use xlink:href="#m81eed7b9e8" x="248.619571" y="81.304" style="stroke: #000000; stroke-width: 0.8"/>
      </g>
     </g>
     <g id="text_2">
      <!-- 50 -->
      <g transform="translate(240.984571 97.422125) scale(0.12 -0.12)">
       <defs>
        <path id="DejaVuSans-35" d="M 691 4666 
L 3169 4666 
L 3169 4134 
L 1269 4134 
L 1269 2991 
Q 1406 3038 1543 3061 
Q 1681 3084 1819 3084 
Q 2600 3084 3056 2656 
Q 3513 2228 3513 1497 
Q 3513 744 3044 326 
Q 2575 -91 1722 -91 
Q 1428 -91 1123 -41 
Q 819 9 494 109 
L 494 744 
Q 775 591 1075 516 
Q 1375 441 1709 441 
Q 2250 441 2565 725 
Q 2881 1009 2881 1497 
Q 2881 1984 2565 2268 
Q 2250 2553 1709 2553 
Q 1456 2553 1204 2497 
Q 953 2441 691 2322 
L 691 4666 
z
" transform="scale(0.015625)"/>
       </defs>
       <use xlink:href="#DejaVuSans-35"/>
       <use xlink:href="#DejaVuSans-30" x="63.623047"/>
      </g>
     </g>
    </g>
    <g id="xtick_3">
     <g id="line2d_5">
      <path d="M 396.819386 81.304 
L 396.819386 10.8 
" clip-path="url(#p0af3bcd567)" style="fill: none; stroke: #b0b0b0; stroke-width: 0.8; stroke-linecap: square"/>
     </g>
     <g id="line2d_6">
      <g>
       <use xlink:href="#m81eed7b9e8" x="396.819386" y="81.304" style="stroke: #000000; stroke-width: 0.8"/>
      </g>
     </g>
     <g id="text_3">
      <!-- 100 -->
      <g transform="translate(385.366886 97.422125) scale(0.12 -0.12)">
       <defs>
        <path id="DejaVuSans-31" d="M 794 531 
L 1825 531 
L 1825 4091 
L 703 3866 
L 703 4441 
L 1819 4666 
L 2450 4666 
L 2450 531 
L 3481 531 
L 3481 0 
L 794 0 
L 794 531 
z
" transform="scale(0.015625)"/>
       </defs>
       <use xlink:href="#DejaVuSans-31"/>
       <use xlink:href="#DejaVuSans-30" x="63.623047"/>
       <use xlink:href="#DejaVuSans-30" x="127.246094"/>
      </g>
     </g>
    </g>
    <g id="xtick_4">
     <g id="line2d_7">
      <path d="M 545.019201 81.304 
L 545.019201 10.8 
" clip-path="url(#p0af3bcd567)" style="fill: none; stroke: #b0b0b0; stroke-width: 0.8; stroke-linecap: square"/>
     </g>
     <g id="line2d_8">
      <g>
       <use xlink:href="#m81eed7b9e8" x="545.019201" y="81.304" style="stroke: #000000; stroke-width: 0.8"/>
      </g>
     </g>
     <g id="text_4">
      <!-- 150 -->
      <g transform="translate(533.566701 97.422125) scale(0.12 -0.12)">
       <use xlink:href="#DejaVuSans-31"/>
       <use xlink:href="#DejaVuSans-35" x="63.623047"/>
       <use xlink:href="#DejaVuSans-30" x="127.246094"/>
      </g>
     </g>
    </g>
    <g id="xtick_5">
     <g id="line2d_9">
      <path d="M 693.219016 81.304 
L 693.219016 10.8 
" clip-path="url(#p0af3bcd567)" style="fill: none; stroke: #b0b0b0; stroke-width: 0.8; stroke-linecap: square"/>
     </g>
     <g id="line2d_10">
      <g>
       <use xlink:href="#m81eed7b9e8" x="693.219016" y="81.304" style="stroke: #000000; stroke-width: 0.8"/>
      </g>
     </g>
     <g id="text_5">
      <!-- 200 -->
      <g transform="translate(681.766516 97.422125) scale(0.12 -0.12)">
       <defs>
        <path id="DejaVuSans-32" d="M 1228 531 
L 3431 531 
L 3431 0 
L 469 0 
L 469 531 
Q 828 903 1448 1529 
Q 2069 2156 2228 2338 
Q 2531 2678 2651 2914 
Q 2772 3150 2772 3378 
Q 2772 3750 2511 3984 
Q 2250 4219 1831 4219 
Q 1534 4219 1204 4116 
Q 875 4013 500 3803 
L 500 4441 
Q 881 4594 1212 4672 
Q 1544 4750 1819 4750 
Q 2544 4750 2975 4387 
Q 3406 4025 3406 3419 
Q 3406 3131 3298 2873 
Q 3191 2616 2906 2266 
Q 2828 2175 2409 1742 
Q 1991 1309 1228 531 
z
" transform="scale(0.015625)"/>
       </defs>
       <use xlink:href="#DejaVuSans-32"/>
       <use xlink:href="#DejaVuSans-30" x="63.623047"/>
       <use xlink:href="#DejaVuSans-30" x="127.246094"/>
      </g>
     </g>
    </g>
    <g id="xtick_6">
     <g id="line2d_11">
      <path d="M 841.418831 81.304 
L 841.418831 10.8 
" clip-path="url(#p0af3bcd567)" style="fill: none; stroke: #b0b0b0; stroke-width: 0.8; stroke-linecap: square"/>
     </g>
     <g id="line2d_12">
      <g>
       <use xlink:href="#m81eed7b9e8" x="841.418831" y="81.304" style="stroke: #000000; stroke-width: 0.8"/>
      </g>
     </g>
     <g id="text_6">
      <!-- 250 -->
      <g transform="translate(829.966331 97.422125) scale(0.12 -0.12)">
       <use xlink:href="#DejaVuSans-32"/>
       <use xlink:href="#DejaVuSans-35" x="63.623047"/>
       <use xlink:href="#DejaVuSans-30" x="127.246094"/>
      </g>
     </g>
    </g>
    <g id="text_7">
     <!-- Hours  -->
     <g transform="translate(435.132314 113.035875) scale(0.12 -0.12)">
      <defs>
       <path id="DejaVuSans-48" d="M 628 4666 
L 1259 4666 
L 1259 2753 
L 3553 2753 
L 3553 4666 
L 4184 4666 
L 4184 0 
L 3553 0 
L 3553 2222 
L 1259 2222 
L 1259 0 
L 628 0 
L 628 4666 
z
" transform="scale(0.015625)"/>
       <path id="DejaVuSans-6f" d="M 1959 3097 
Q 1497 3097 1228 2736 
Q 959 2375 959 1747 
Q 959 1119 1226 758 
Q 1494 397 1959 397 
Q 2419 397 2687 759 
Q 2956 1122 2956 1747 
Q 2956 2369 2687 2733 
Q 2419 3097 1959 3097 
z
M 1959 3584 
Q 2709 3584 3137 3096 
Q 3566 2609 3566 1747 
Q 3566 888 3137 398 
Q 2709 -91 1959 -91 
Q 1206 -91 779 398 
Q 353 888 353 1747 
Q 353 2609 779 3096 
Q 1206 3584 1959 3584 
z
" transform="scale(0.015625)"/>
       <path id="DejaVuSans-75" d="M 544 1381 
L 544 3500 
L 1119 3500 
L 1119 1403 
Q 1119 906 1312 657 
Q 1506 409 1894 409 
Q 2359 409 2629 706 
Q 2900 1003 2900 1516 
L 2900 3500 
L 3475 3500 
L 3475 0 
L 2900 0 
L 2900 538 
Q 2691 219 2414 64 
Q 2138 -91 1772 -91 
Q 1169 -91 856 284 
Q 544 659 544 1381 
z
M 1991 3584 
L 1991 3584 
z
" transform="scale(0.015625)"/>
       <path id="DejaVuSans-72" d="M 2631 2963 
Q 2534 3019 2420 3045 
Q 2306 3072 2169 3072 
Q 1681 3072 1420 2755 
Q 1159 2438 1159 1844 
L 1159 0 
L 581 0 
L 581 3500 
L 1159 3500 
L 1159 2956 
Q 1341 3275 1631 3429 
Q 1922 3584 2338 3584 
Q 2397 3584 2469 3576 
Q 2541 3569 2628 3553 
L 2631 2963 
z
" transform="scale(0.015625)"/>
       <path id="DejaVuSans-73" d="M 2834 3397 
L 2834 2853 
Q 2591 2978 2328 3040 
Q 2066 3103 1784 3103 
Q 1356 3103 1142 2972 
Q 928 2841 928 2578 
Q 928 2378 1081 2264 
Q 1234 2150 1697 2047 
L 1894 2003 
Q 2506 1872 2764 1633 
Q 3022 1394 3022 966 
Q 3022 478 2636 193 
Q 2250 -91 1575 -91 
Q 1294 -91 989 -36 
Q 684 19 347 128 
L 347 722 
Q 666 556 975 473 
Q 1284 391 1588 391 
Q 1994 391 2212 530 
Q 2431 669 2431 922 
Q 2431 1156 2273 1281 
Q 2116 1406 1581 1522 
L 1381 1569 
Q 847 1681 609 1914 
Q 372 2147 372 2553 
Q 372 3047 722 3315 
Q 1072 3584 1716 3584 
Q 2034 3584 2315 3537 
Q 2597 3491 2834 3397 
z
" transform="scale(0.015625)"/>
       <path id="DejaVuSans-20" transform="scale(0.015625)"/>
      </defs>
      <use xlink:href="#DejaVuSans-48"/>
      <use xlink:href="#DejaVuSans-6f" x="75.195312"/>
      <use xlink:href="#DejaVuSans-75" x="136.376953"/>
      <use xlink:href="#DejaVuSans-72" x="199.755859"/>
      <use xlink:href="#DejaVuSans-73" x="240.869141"/>
      <use xlink:href="#DejaVuSans-20" x="292.96875"/>
     </g>
     <!--  (e) KAN Part Forecast Load at Final Epoch -->
     <g transform="translate(328.713876 126.47325) scale(0.12 -0.12)">
      <defs>
       <path id="DejaVuSans-28" d="M 1984 4856 
Q 1566 4138 1362 3434 
Q 1159 2731 1159 2009 
Q 1159 1288 1364 580 
Q 1569 -128 1984 -844 
L 1484 -844 
Q 1016 -109 783 600 
Q 550 1309 550 2009 
Q 550 2706 781 3412 
Q 1013 4119 1484 4856 
L 1984 4856 
z
" transform="scale(0.015625)"/>
       <path id="DejaVuSans-65" d="M 3597 1894 
L 3597 1613 
L 953 1613 
Q 991 1019 1311 708 
Q 1631 397 2203 397 
Q 2534 397 2845 478 
Q 3156 559 3463 722 
L 3463 178 
Q 3153 47 2828 -22 
Q 2503 -91 2169 -91 
Q 1331 -91 842 396 
Q 353 884 353 1716 
Q 353 2575 817 3079 
Q 1281 3584 2069 3584 
Q 2775 3584 3186 3129 
Q 3597 2675 3597 1894 
z
M 3022 2063 
Q 3016 2534 2758 2815 
Q 2500 3097 2075 3097 
Q 1594 3097 1305 2825 
Q 1016 2553 972 2059 
L 3022 2063 
z
" transform="scale(0.015625)"/>
       <path id="DejaVuSans-29" d="M 513 4856 
L 1013 4856 
Q 1481 4119 1714 3412 
Q 1947 2706 1947 2009 
Q 1947 1309 1714 600 
Q 1481 -109 1013 -844 
L 513 -844 
Q 928 -128 1133 580 
Q 1338 1288 1338 2009 
Q 1338 2731 1133 3434 
Q 928 4138 513 4856 
z
" transform="scale(0.015625)"/>
       <path id="DejaVuSans-4b" d="M 628 4666 
L 1259 4666 
L 1259 2694 
L 3353 4666 
L 4166 4666 
L 1850 2491 
L 4331 0 
L 3500 0 
L 1259 2247 
L 1259 0 
L 628 0 
L 628 4666 
z
" transform="scale(0.015625)"/>
       <path id="DejaVuSans-41" d="M 2188 4044 
L 1331 1722 
L 3047 1722 
L 2188 4044 
z
M 1831 4666 
L 2547 4666 
L 4325 0 
L 3669 0 
L 3244 1197 
L 1141 1197 
L 716 0 
L 50 0 
L 1831 4666 
z
" transform="scale(0.015625)"/>
       <path id="DejaVuSans-4e" d="M 628 4666 
L 1478 4666 
L 3547 763 
L 3547 4666 
L 4159 4666 
L 4159 0 
L 3309 0 
L 1241 3903 
L 1241 0 
L 628 0 
L 628 4666 
z
" transform="scale(0.015625)"/>
       <path id="DejaVuSans-50" d="M 1259 4147 
L 1259 2394 
L 2053 2394 
Q 2494 2394 2734 2622 
Q 2975 2850 2975 3272 
Q 2975 3691 2734 3919 
Q 2494 4147 2053 4147 
L 1259 4147 
z
M 628 4666 
L 2053 4666 
Q 2838 4666 3239 4311 
Q 3641 3956 3641 3272 
Q 3641 2581 3239 2228 
Q 2838 1875 2053 1875 
L 1259 1875 
L 1259 0 
L 628 0 
L 628 4666 
z
" transform="scale(0.015625)"/>
       <path id="DejaVuSans-61" d="M 2194 1759 
Q 1497 1759 1228 1600 
Q 959 1441 959 1056 
Q 959 750 1161 570 
Q 1363 391 1709 391 
Q 2188 391 2477 730 
Q 2766 1069 2766 1631 
L 2766 1759 
L 2194 1759 
z
M 3341 1997 
L 3341 0 
L 2766 0 
L 2766 531 
Q 2569 213 2275 61 
Q 1981 -91 1556 -91 
Q 1019 -91 701 211 
Q 384 513 384 1019 
Q 384 1609 779 1909 
Q 1175 2209 1959 2209 
L 2766 2209 
L 2766 2266 
Q 2766 2663 2505 2880 
Q 2244 3097 1772 3097 
Q 1472 3097 1187 3025 
Q 903 2953 641 2809 
L 641 3341 
Q 956 3463 1253 3523 
Q 1550 3584 1831 3584 
Q 2591 3584 2966 3190 
Q 3341 2797 3341 1997 
z
" transform="scale(0.015625)"/>
       <path id="DejaVuSans-74" d="M 1172 4494 
L 1172 3500 
L 2356 3500 
L 2356 3053 
L 1172 3053 
L 1172 1153 
Q 1172 725 1289 603 
Q 1406 481 1766 481 
L 2356 481 
L 2356 0 
L 1766 0 
Q 1100 0 847 248 
Q 594 497 594 1153 
L 594 3053 
L 172 3053 
L 172 3500 
L 594 3500 
L 594 4494 
L 1172 4494 
z
" transform="scale(0.015625)"/>
       <path id="DejaVuSans-46" d="M 628 4666 
L 3309 4666 
L 3309 4134 
L 1259 4134 
L 1259 2759 
L 3109 2759 
L 3109 2228 
L 1259 2228 
L 1259 0 
L 628 0 
L 628 4666 
z
" transform="scale(0.015625)"/>
       <path id="DejaVuSans-63" d="M 3122 3366 
L 3122 2828 
Q 2878 2963 2633 3030 
Q 2388 3097 2138 3097 
Q 1578 3097 1268 2742 
Q 959 2388 959 1747 
Q 959 1106 1268 751 
Q 1578 397 2138 397 
Q 2388 397 2633 464 
Q 2878 531 3122 666 
L 3122 134 
Q 2881 22 2623 -34 
Q 2366 -91 2075 -91 
Q 1284 -91 818 406 
Q 353 903 353 1747 
Q 353 2603 823 3093 
Q 1294 3584 2113 3584 
Q 2378 3584 2631 3529 
Q 2884 3475 3122 3366 
z
" transform="scale(0.015625)"/>
       <path id="DejaVuSans-4c" d="M 628 4666 
L 1259 4666 
L 1259 531 
L 3531 531 
L 3531 0 
L 628 0 
L 628 4666 
z
" transform="scale(0.015625)"/>
       <path id="DejaVuSans-64" d="M 2906 2969 
L 2906 4863 
L 3481 4863 
L 3481 0 
L 2906 0 
L 2906 525 
Q 2725 213 2448 61 
Q 2172 -91 1784 -91 
Q 1150 -91 751 415 
Q 353 922 353 1747 
Q 353 2572 751 3078 
Q 1150 3584 1784 3584 
Q 2172 3584 2448 3432 
Q 2725 3281 2906 2969 
z
M 947 1747 
Q 947 1113 1208 752 
Q 1469 391 1925 391 
Q 2381 391 2643 752 
Q 2906 1113 2906 1747 
Q 2906 2381 2643 2742 
Q 2381 3103 1925 3103 
Q 1469 3103 1208 2742 
Q 947 2381 947 1747 
z
" transform="scale(0.015625)"/>
       <path id="DejaVuSans-69" d="M 603 3500 
L 1178 3500 
L 1178 0 
L 603 0 
L 603 3500 
z
M 603 4863 
L 1178 4863 
L 1178 4134 
L 603 4134 
L 603 4863 
z
" transform="scale(0.015625)"/>
       <path id="DejaVuSans-6e" d="M 3513 2113 
L 3513 0 
L 2938 0 
L 2938 2094 
Q 2938 2591 2744 2837 
Q 2550 3084 2163 3084 
Q 1697 3084 1428 2787 
Q 1159 2491 1159 1978 
L 1159 0 
L 581 0 
L 581 3500 
L 1159 3500 
L 1159 2956 
Q 1366 3272 1645 3428 
Q 1925 3584 2291 3584 
Q 2894 3584 3203 3211 
Q 3513 2838 3513 2113 
z
" transform="scale(0.015625)"/>
       <path id="DejaVuSans-6c" d="M 603 4863 
L 1178 4863 
L 1178 0 
L 603 0 
L 603 4863 
z
" transform="scale(0.015625)"/>
       <path id="DejaVuSans-45" d="M 628 4666 
L 3578 4666 
L 3578 4134 
L 1259 4134 
L 1259 2753 
L 3481 2753 
L 3481 2222 
L 1259 2222 
L 1259 531 
L 3634 531 
L 3634 0 
L 628 0 
L 628 4666 
z
" transform="scale(0.015625)"/>
       <path id="DejaVuSans-70" d="M 1159 525 
L 1159 -1331 
L 581 -1331 
L 581 3500 
L 1159 3500 
L 1159 2969 
Q 1341 3281 1617 3432 
Q 1894 3584 2278 3584 
Q 2916 3584 3314 3078 
Q 3713 2572 3713 1747 
Q 3713 922 3314 415 
Q 2916 -91 2278 -91 
Q 1894 -91 1617 61 
Q 1341 213 1159 525 
z
M 3116 1747 
Q 3116 2381 2855 2742 
Q 2594 3103 2138 3103 
Q 1681 3103 1420 2742 
Q 1159 2381 1159 1747 
Q 1159 1113 1420 752 
Q 1681 391 2138 391 
Q 2594 391 2855 752 
Q 3116 1113 3116 1747 
z
" transform="scale(0.015625)"/>
       <path id="DejaVuSans-68" d="M 3513 2113 
L 3513 0 
L 2938 0 
L 2938 2094 
Q 2938 2591 2744 2837 
Q 2550 3084 2163 3084 
Q 1697 3084 1428 2787 
Q 1159 2491 1159 1978 
L 1159 0 
L 581 0 
L 581 4863 
L 1159 4863 
L 1159 2956 
Q 1366 3272 1645 3428 
Q 1925 3584 2291 3584 
Q 2894 3584 3203 3211 
Q 3513 2838 3513 2113 
z
" transform="scale(0.015625)"/>
      </defs>
      <use xlink:href="#DejaVuSans-20"/>
      <use xlink:href="#DejaVuSans-28" x="31.787109"/>
      <use xlink:href="#DejaVuSans-65" x="70.800781"/>
      <use xlink:href="#DejaVuSans-29" x="132.324219"/>
      <use xlink:href="#DejaVuSans-20" x="171.337891"/>
      <use xlink:href="#DejaVuSans-4b" x="203.125"/>
      <use xlink:href="#DejaVuSans-41" x="266.951172"/>
      <use xlink:href="#DejaVuSans-4e" x="335.359375"/>
      <use xlink:href="#DejaVuSans-20" x="410.164062"/>
      <use xlink:href="#DejaVuSans-50" x="441.951172"/>
      <use xlink:href="#DejaVuSans-61" x="497.753906"/>
      <use xlink:href="#DejaVuSans-72" x="559.033203"/>
      <use xlink:href="#DejaVuSans-74" x="600.146484"/>
      <use xlink:href="#DejaVuSans-20" x="639.355469"/>
      <use xlink:href="#DejaVuSans-46" x="671.142578"/>
      <use xlink:href="#DejaVuSans-6f" x="725.037109"/>
      <use xlink:href="#DejaVuSans-72" x="786.21875"/>
      <use xlink:href="#DejaVuSans-65" x="825.082031"/>
      <use xlink:href="#DejaVuSans-63" x="886.605469"/>
      <use xlink:href="#DejaVuSans-61" x="941.585938"/>
      <use xlink:href="#DejaVuSans-73" x="1002.865234"/>
      <use xlink:href="#DejaVuSans-74" x="1054.964844"/>
      <use xlink:href="#DejaVuSans-20" x="1094.173828"/>
      <use xlink:href="#DejaVuSans-4c" x="1125.960938"/>
      <use xlink:href="#DejaVuSans-6f" x="1179.923828"/>
      <use xlink:href="#DejaVuSans-61" x="1241.105469"/>
      <use xlink:href="#DejaVuSans-64" x="1302.384766"/>
      <use xlink:href="#DejaVuSans-20" x="1365.861328"/>
      <use xlink:href="#DejaVuSans-61" x="1397.648438"/>
      <use xlink:href="#DejaVuSans-74" x="1458.927734"/>
      <use xlink:href="#DejaVuSans-20" x="1498.136719"/>
      <use xlink:href="#DejaVuSans-46" x="1529.923828"/>
      <use xlink:href="#DejaVuSans-69" x="1580.193359"/>
      <use xlink:href="#DejaVuSans-6e" x="1607.976562"/>
      <use xlink:href="#DejaVuSans-61" x="1671.355469"/>
      <use xlink:href="#DejaVuSans-6c" x="1732.634766"/>
      <use xlink:href="#DejaVuSans-20" x="1760.417969"/>
      <use xlink:href="#DejaVuSans-45" x="1792.205078"/>
      <use xlink:href="#DejaVuSans-70" x="1855.388672"/>
      <use xlink:href="#DejaVuSans-6f" x="1918.865234"/>
      <use xlink:href="#DejaVuSans-63" x="1980.046875"/>
      <use xlink:href="#DejaVuSans-68" x="2035.027344"/>
     </g>
    </g>
   </g>
   <g id="matplotlib.axis_2">
    <g id="ytick_1">
     <g id="line2d_13">
      <path d="M 65 59.587911 
L 844.234627 59.587911 
" clip-path="url(#p0af3bcd567)" style="fill: none; stroke: #b0b0b0; stroke-width: 0.8; stroke-linecap: square"/>
     </g>
     <g id="line2d_14">
      <defs>
       <path id="m4d94a6d350" d="M 0 0 
L -3.5 0 
" style="stroke: #000000; stroke-width: 0.8"/>
      </defs>
      <g>
       <use xlink:href="#m4d94a6d350" x="65" y="59.587911" style="stroke: #000000; stroke-width: 0.8"/>
      </g>
     </g>
     <g id="text_8">
      <!-- 7000 -->
      <g transform="translate(27.46 64.146974) scale(0.12 -0.12)">
       <defs>
        <path id="DejaVuSans-37" d="M 525 4666 
L 3525 4666 
L 3525 4397 
L 1831 0 
L 1172 0 
L 2766 4134 
L 525 4134 
L 525 4666 
z
" transform="scale(0.015625)"/>
       </defs>
       <use xlink:href="#DejaVuSans-37"/>
       <use xlink:href="#DejaVuSans-30" x="63.623047"/>
       <use xlink:href="#DejaVuSans-30" x="127.246094"/>
       <use xlink:href="#DejaVuSans-30" x="190.869141"/>
      </g>
     </g>
    </g>
    <g id="ytick_2">
     <g id="line2d_15">
      <path d="M 65 37.576779 
L 844.234627 37.576779 
" clip-path="url(#p0af3bcd567)" style="fill: none; stroke: #b0b0b0; stroke-width: 0.8; stroke-linecap: square"/>
     </g>
     <g id="line2d_16">
      <g>
       <use xlink:href="#m4d94a6d350" x="65" y="37.576779" style="stroke: #000000; stroke-width: 0.8"/>
      </g>
     </g>
     <g id="text_9">
      <!-- 8000 -->
      <g transform="translate(27.46 42.135842) scale(0.12 -0.12)">
       <defs>
        <path id="DejaVuSans-38" d="M 2034 2216 
Q 1584 2216 1326 1975 
Q 1069 1734 1069 1313 
Q 1069 891 1326 650 
Q 1584 409 2034 409 
Q 2484 409 2743 651 
Q 3003 894 3003 1313 
Q 3003 1734 2745 1975 
Q 2488 2216 2034 2216 
z
M 1403 2484 
Q 997 2584 770 2862 
Q 544 3141 544 3541 
Q 544 4100 942 4425 
Q 1341 4750 2034 4750 
Q 2731 4750 3128 4425 
Q 3525 4100 3525 3541 
Q 3525 3141 3298 2862 
Q 3072 2584 2669 2484 
Q 3125 2378 3379 2068 
Q 3634 1759 3634 1313 
Q 3634 634 3220 271 
Q 2806 -91 2034 -91 
Q 1263 -91 848 271 
Q 434 634 434 1313 
Q 434 1759 690 2068 
Q 947 2378 1403 2484 
z
M 1172 3481 
Q 1172 3119 1398 2916 
Q 1625 2713 2034 2713 
Q 2441 2713 2670 2916 
Q 2900 3119 2900 3481 
Q 2900 3844 2670 4047 
Q 2441 4250 2034 4250 
Q 1625 4250 1398 4047 
Q 1172 3844 1172 3481 
z
" transform="scale(0.015625)"/>
       </defs>
       <use xlink:href="#DejaVuSans-38"/>
       <use xlink:href="#DejaVuSans-30" x="63.623047"/>
       <use xlink:href="#DejaVuSans-30" x="127.246094"/>
       <use xlink:href="#DejaVuSans-30" x="190.869141"/>
      </g>
     </g>
    </g>
    <g id="ytick_3">
     <g id="line2d_17">
      <path d="M 65 15.565648 
L 844.234627 15.565648 
" clip-path="url(#p0af3bcd567)" style="fill: none; stroke: #b0b0b0; stroke-width: 0.8; stroke-linecap: square"/>
     </g>
     <g id="line2d_18">
      <g>
       <use xlink:href="#m4d94a6d350" x="65" y="15.565648" style="stroke: #000000; stroke-width: 0.8"/>
      </g>
     </g>
     <g id="text_10">
      <!-- 9000 -->
      <g transform="translate(27.46 20.12471) scale(0.12 -0.12)">
       <defs>
        <path id="DejaVuSans-39" d="M 703 97 
L 703 672 
Q 941 559 1184 500 
Q 1428 441 1663 441 
Q 2288 441 2617 861 
Q 2947 1281 2994 2138 
Q 2813 1869 2534 1725 
Q 2256 1581 1919 1581 
Q 1219 1581 811 2004 
Q 403 2428 403 3163 
Q 403 3881 828 4315 
Q 1253 4750 1959 4750 
Q 2769 4750 3195 4129 
Q 3622 3509 3622 2328 
Q 3622 1225 3098 567 
Q 2575 -91 1691 -91 
Q 1453 -91 1209 -44 
Q 966 3 703 97 
z
M 1959 2075 
Q 2384 2075 2632 2365 
Q 2881 2656 2881 3163 
Q 2881 3666 2632 3958 
Q 2384 4250 1959 4250 
Q 1534 4250 1286 3958 
Q 1038 3666 1038 3163 
Q 1038 2656 1286 2365 
Q 1534 2075 1959 2075 
z
" transform="scale(0.015625)"/>
       </defs>
       <use xlink:href="#DejaVuSans-39"/>
       <use xlink:href="#DejaVuSans-30" x="63.623047"/>
       <use xlink:href="#DejaVuSans-30" x="127.246094"/>
       <use xlink:href="#DejaVuSans-30" x="190.869141"/>
      </g>
     </g>
    </g>
    <g id="text_11">
     <!-- MW -->
     <g transform="translate(20.964375 57.161375) rotate(-90) scale(0.12 -0.12)">
      <defs>
       <path id="DejaVuSans-4d" d="M 628 4666 
L 1569 4666 
L 2759 1491 
L 3956 4666 
L 4897 4666 
L 4897 0 
L 4281 0 
L 4281 4097 
L 3078 897 
L 2444 897 
L 1241 4097 
L 1241 0 
L 628 0 
L 628 4666 
z
" transform="scale(0.015625)"/>
       <path id="DejaVuSans-57" d="M 213 4666 
L 850 4666 
L 1831 722 
L 2809 4666 
L 3519 4666 
L 4500 722 
L 5478 4666 
L 6119 4666 
L 4947 0 
L 4153 0 
L 3169 4050 
L 2175 0 
L 1381 0 
L 213 4666 
z
" transform="scale(0.015625)"/>
      </defs>
      <use xlink:href="#DejaVuSans-4d"/>
      <use xlink:href="#DejaVuSans-57" x="86.279297"/>
     </g>
    </g>
   </g>
   <g id="line2d_19">
    <path d="M 100.419756 61.89908 
L 103.383752 60.600423 
L 106.347748 61.282768 
L 109.311745 61.414835 
L 112.275741 65.574939 
L 115.239737 59.940089 
L 118.203734 44.312186 
L 121.16773 29.520705 
L 124.131726 20.584186 
L 130.059719 20.27603 
L 133.023715 20.826307 
L 135.987711 29.63076 
L 138.951708 28.66227 
L 141.915704 34.29712 
L 144.8797 36.322145 
L 147.843697 36.916445 
L 150.807693 36.4322 
L 153.771689 26.241047 
L 156.735685 28.222048 
L 159.699682 39.16158 
L 162.663678 47.371733 
L 165.627674 51.751948 
L 168.591671 60.820535 
L 171.555667 60.798523 
L 174.519663 60.204223 
L 177.48366 62.009136 
L 180.447656 65.464883 
L 183.411652 67.864096 
L 186.375648 60.512378 
L 189.339645 48.076089 
L 192.303641 33.680809 
L 195.267637 23.709766 
L 198.231634 23.005411 
L 201.19563 20.364074 
L 204.159626 20.628209 
L 207.123623 28.464172 
L 210.087619 25.426635 
L 213.051615 27.913892 
L 216.015611 27.495682 
L 218.979608 23.819823 
L 221.943604 23.467644 
L 224.9076 19.659719 
L 227.871597 25.030434 
L 233.799589 45.324697 
L 236.763586 50.299213 
L 239.727582 57.496854 
L 242.691578 51.267703 
L 245.655574 48.912512 
L 248.619571 50.651391 
L 251.583567 51.553848 
L 254.547563 54.921551 
L 257.51156 48.582345 
L 260.475556 44.114085 
L 263.439552 30.797351 
L 266.403549 20.584186 
L 269.367545 18.801284 
L 272.331541 16.644194 
L 275.295537 15.543636 
L 278.259534 21.486641 
L 281.22353 19.593684 
L 284.187526 22.961388 
L 287.151523 23.7758 
L 290.115519 25.11848 
L 293.079515 27.847858 
L 296.043512 21.288541 
L 299.007508 23.555688 
L 301.971504 34.341143 
L 304.9355 43.717885 
L 307.899497 47.988045 
L 310.863493 54.921551 
L 313.827489 57.210709 
L 316.791486 53.204683 
L 319.755482 48.802456 
L 322.719478 51.157648 
L 325.683475 52.742449 
L 328.647471 54.70144 
L 331.611467 43.893974 
L 334.575463 31.963941 
L 337.53946 23.7758 
L 340.503456 21.882843 
L 343.467452 19.593684 
L 346.431449 21.046419 
L 349.395445 26.835347 
L 352.359441 26.637247 
L 355.323438 29.344616 
L 358.287434 33.108521 
L 361.25143 35.6398 
L 364.215426 34.605276 
L 367.179423 27.605737 
L 370.143419 30.489195 
L 373.107415 41.010516 
L 376.071412 49.506813 
L 379.035408 53.887028 
L 381.999404 59.3678 
L 384.963401 62.86757 
L 387.927397 63.395837 
L 390.891393 54.041106 
L 396.819386 62.779525 
L 402.747378 59.059644 
L 405.711375 66.851585 
L 408.675371 59.984112 
L 411.639367 51.00357 
L 414.603364 46.227154 
L 417.56736 43.101573 
L 420.531356 40.636327 
L 423.495352 41.032527 
L 426.459349 46.425254 
L 429.423345 46.469277 
L 432.387341 45.36872 
L 435.351338 49.704913 
L 438.315334 42.023028 
L 441.27933 42.507272 
L 444.243327 52.104126 
L 447.207323 58.223221 
L 450.171319 60.710479 
L 453.135315 61.436846 
L 456.099312 63.417848 
L 459.063308 60.688468 
L 462.027304 62.053158 
L 464.991301 66.19125 
L 467.955297 71.011689 
L 470.919293 70.417388 
L 473.88329 78.099273 
L 476.847286 74.33537 
L 479.811282 65.684994 
L 482.775278 66.015161 
L 485.739275 57.871043 
L 488.703271 52.742449 
L 491.667267 51.465804 
L 494.631264 55.383785 
L 497.59526 59.896067 
L 500.559256 60.644445 
L 503.523253 58.751488 
L 506.487249 55.978086 
L 509.451245 51.069603 
L 512.415241 47.437767 
L 515.379238 55.317752 
L 518.343234 61.414835 
L 521.30723 63.880082 
L 524.271227 68.590464 
L 527.235223 67.599964 
L 530.199219 63.902093 
L 533.163216 59.830033 
L 536.127212 58.311265 
L 539.091208 61.745002 
L 542.055204 56.528364 
L 545.019201 46.667377 
L 547.983197 32.756342 
L 550.947193 25.052445 
L 553.91119 25.272558 
L 556.875186 26.064958 
L 559.839182 24.9644 
L 562.803179 32.096008 
L 565.767175 33.218576 
L 568.731171 34.781365 
L 571.695167 37.818902 
L 574.659164 35.991977 
L 577.62316 35.397677 
L 580.587156 26.108979 
L 583.551153 26.351102 
L 586.515149 36.608289 
L 589.479145 45.126597 
L 592.443142 50.62938 
L 595.407138 55.185685 
L 598.371134 53.997084 
L 601.33513 52.676416 
L 604.299127 53.204683 
L 607.263123 55.163674 
L 610.227119 58.245232 
L 613.191116 49.550835 
L 616.155112 44.466264 
L 619.119108 30.269083 
L 622.083105 20.914353 
L 625.047101 20.165975 
L 628.011097 18.383071 
L 630.975093 16.996372 
L 633.93909 24.282056 
L 636.903086 23.995912 
L 639.867082 27.253558 
L 642.831079 29.872884 
L 645.795075 31.677795 
L 648.759071 34.054999 
L 651.723068 26.439146 
L 654.687064 26.020935 
L 657.65106 35.771867 
L 660.615056 43.60783 
L 663.579053 44.840452 
L 666.543049 48.208156 
L 669.507045 60.886568 
L 672.471042 56.044119 
L 675.435038 55.978086 
L 678.399034 61.767013 
L 681.363031 63.43986 
L 684.327027 55.031607 
L 687.291023 45.830954 
L 690.255019 32.492207 
L 693.219016 24.304068 
L 696.183012 25.250546 
L 699.147008 24.986411 
L 702.111005 26.263057 
L 705.075001 34.495221 
L 708.038997 36.366167 
L 711.002994 40.70236 
L 713.96699 44.334197 
L 716.930986 45.500787 
L 719.894982 44.40023 
L 722.858979 33.284608 
L 725.822975 31.963941 
L 728.786971 42.023028 
L 731.750968 49.132623 
L 737.67896 62.207236 
L 740.642957 59.433833 
L 746.570949 60.358301 
L 749.534945 63.83606 
L 752.498942 65.486894 
L 755.462938 57.849032 
L 758.426934 42.397217 
L 761.390931 29.190538 
L 764.354927 23.423621 
L 767.318923 25.844846 
L 770.28292 26.90138 
L 773.246916 28.24406 
L 776.210912 37.686835 
L 779.174908 37.642812 
L 782.138905 39.667837 
L 785.102901 43.849952 
L 788.066897 45.412742 
L 791.030894 45.676876 
L 793.99489 34.605276 
L 796.958886 30.203051 
L 799.922883 39.689848 
L 802.886879 48.318212 
L 805.850875 53.446805 
L 808.814871 62.229247 
L 808.814871 62.229247 
" clip-path="url(#p0af3bcd567)" style="fill: none; stroke: #000000; stroke-width: 3; stroke-linecap: square"/>
   </g>
   <g id="line2d_20">
    <path d="M 100.419756 61.386827 
L 103.383752 64.849216 
L 106.347748 64.382823 
L 109.311745 63.787169 
L 112.275741 62.157517 
L 115.239737 61.178677 
L 118.203734 58.408531 
L 121.16773 33.811769 
L 124.131726 21.168663 
L 127.095722 16.776389 
L 130.059719 25.264345 
L 133.023715 22.144139 
L 135.987711 21.589217 
L 138.951708 26.600082 
L 141.915704 35.769545 
L 144.8797 39.439719 
L 147.843697 39.961172 
L 150.807693 32.187255 
L 153.771689 27.329953 
L 156.735685 30.356784 
L 159.699682 43.421509 
L 162.663678 50.266218 
L 165.627674 49.241744 
L 168.591671 56.373372 
L 171.555667 54.657976 
L 174.519663 57.050816 
L 177.48366 63.318175 
L 180.447656 66.066911 
L 183.411652 64.851409 
L 186.375648 66.432997 
L 189.339645 57.447801 
L 192.303641 46.230658 
L 195.267637 37.300458 
L 198.231634 30.272695 
L 201.19563 31.982943 
L 204.159626 34.75369 
L 207.123623 32.930603 
L 210.087619 44.944468 
L 216.015611 44.285714 
L 218.979608 26.869804 
L 221.943604 25.671981 
L 224.9076 18.392122 
L 227.871597 26.076113 
L 230.835593 38.911279 
L 233.799589 47.509668 
L 236.763586 54.579057 
L 239.727582 59.673484 
L 242.691578 64.435218 
L 245.655574 65.216989 
L 248.619571 63.72796 
L 251.583567 62.980441 
L 254.547563 62.733923 
L 257.51156 60.753534 
L 260.475556 52.665829 
L 263.439552 34.31364 
L 266.403549 17.742815 
L 269.367545 21.691513 
L 272.331541 19.441455 
L 275.295537 18.355516 
L 278.259534 25.544063 
L 281.22353 25.356711 
L 284.187526 26.177592 
L 287.151523 30.382471 
L 290.115519 31.394209 
L 293.079515 31.743378 
L 296.043512 29.638155 
L 299.007508 31.555123 
L 301.971504 37.519785 
L 304.9355 50.521055 
L 307.899497 57.1686 
L 310.863493 59.424569 
L 313.827489 58.669817 
L 316.791486 58.553581 
L 319.755482 56.935967 
L 322.719478 58.460378 
L 325.683475 59.521469 
L 328.647471 62.971349 
L 331.611467 52.143935 
L 334.575463 31.175173 
L 337.53946 19.802382 
L 340.503456 18.460541 
L 343.467452 32.231492 
L 346.431449 41.080074 
L 349.395445 56.994768 
L 352.359441 53.811386 
L 355.323438 55.385999 
L 358.287434 52.617637 
L 361.25143 65.209423 
L 364.215426 41.570413 
L 367.179423 33.023484 
L 370.143419 34.160024 
L 373.107415 46.161099 
L 376.071412 40.099633 
L 379.035408 54.044878 
L 381.999404 57.155574 
L 384.963401 62.097674 
L 387.927397 61.646962 
L 390.891393 68.299375 
L 393.855389 70.312437 
L 396.819386 76.377192 
L 399.783382 76.36063 
L 402.747378 67.044053 
L 405.711375 66.269569 
L 408.675371 64.799025 
L 411.639367 64.912122 
L 414.603364 70.614693 
L 417.56736 69.420696 
L 420.531356 59.718226 
L 423.495352 64.473039 
L 426.459349 63.913733 
L 429.423345 64.332342 
L 432.387341 60.892275 
L 435.351338 53.992817 
L 438.315334 57.391946 
L 441.27933 48.883472 
L 444.243327 52.310244 
L 447.207323 57.729228 
L 450.171319 56.130422 
L 453.135315 57.743769 
L 456.099312 65.676708 
L 459.063308 66.046179 
L 462.027304 66.142929 
L 464.991301 69.048592 
L 467.955297 71.132782 
L 470.919293 70.92129 
L 473.88329 74.19291 
L 476.847286 72.432202 
L 479.811282 66.504264 
L 482.775278 66.781177 
L 485.739275 61.567494 
L 488.703271 66.625014 
L 491.667267 60.615792 
L 494.631264 52.690205 
L 497.59526 62.416976 
L 500.559256 61.856906 
L 503.523253 67.535606 
L 506.487249 51.677714 
L 509.451245 50.051406 
L 512.415241 53.549488 
L 515.379238 62.574557 
L 518.343234 65.499501 
L 521.30723 66.104249 
L 524.271227 65.934425 
L 527.235223 72.867051 
L 530.199219 73.585282 
L 533.163216 72.934406 
L 536.127212 73.131915 
L 539.091208 72.33068 
L 542.055204 67.910655 
L 545.019201 55.228707 
L 547.983197 34.722608 
L 550.947193 28.983625 
L 553.91119 22.968911 
L 556.875186 22.613487 
L 559.839182 24.722171 
L 562.803179 40.001099 
L 565.767175 33.144051 
L 568.731171 39.357746 
L 571.695167 42.394025 
L 574.659164 26.316796 
L 577.62316 22.804924 
L 580.587156 23.552185 
L 583.551153 30.670851 
L 586.515149 41.354236 
L 589.479145 51.450123 
L 592.443142 56.519389 
L 595.407138 62.145061 
L 598.371134 64.762365 
L 601.33513 65.445344 
L 604.299127 65.864082 
L 607.263123 66.048178 
L 610.227119 66.001609 
L 613.191116 67.703721 
L 616.155112 64.080428 
L 622.083105 33.755097 
L 625.047101 18.649699 
L 628.011097 14.004727 
L 630.975093 18.020684 
L 633.93909 26.509458 
L 636.903086 28.101481 
L 639.867082 26.467821 
L 642.831079 20.351242 
L 645.795075 29.854999 
L 648.759071 25.651002 
L 651.723068 19.47286 
L 654.687064 27.196704 
L 657.65106 39.505935 
L 660.615056 47.867295 
L 663.579053 55.774128 
L 669.507045 63.844604 
L 672.471042 64.694096 
L 675.435038 65.763592 
L 678.399034 70.692721 
L 681.363031 70.248865 
L 684.327027 64.681908 
L 687.291023 51.732344 
L 690.255019 30.657718 
L 693.219016 27.027901 
L 696.183012 20.55521 
L 699.147008 18.745869 
L 702.111005 22.712086 
L 705.075001 25.877368 
L 708.038997 40.339896 
L 711.002994 41.821811 
L 713.96699 48.447043 
L 716.930986 43.665781 
L 719.894982 37.833519 
L 722.858979 26.772667 
L 725.822975 34.658552 
L 728.786971 42.935372 
L 731.750968 51.596204 
L 734.714964 56.66891 
L 737.67896 59.767332 
L 740.642957 62.483127 
L 743.606953 63.201627 
L 746.570949 64.068584 
L 749.534945 64.743417 
L 752.498942 66.680751 
L 755.462938 63.417773 
L 758.426934 55.140093 
L 761.390931 36.87655 
L 764.354927 24.164455 
L 767.318923 22.032944 
L 770.28292 32.445542 
L 773.246916 26.385172 
L 776.210912 37.61445 
L 779.174908 40.719653 
L 782.138905 48.50924 
L 785.102901 47.259345 
L 788.066897 46.511558 
L 791.030894 42.380892 
L 793.99489 36.719549 
L 796.958886 37.57492 
L 799.922883 51.627716 
L 802.886879 58.782721 
L 805.850875 60.752588 
L 808.814871 65.136898 
L 808.814871 65.136898 
" clip-path="url(#p0af3bcd567)" style="fill: none; stroke: #ff0000; stroke-width: 3; stroke-linecap: square"/>
   </g>
   <g id="patch_3">
    <path d="M 65 81.304 
L 65 10.8 
" style="fill: none; stroke: #000000; stroke-width: 0.8; stroke-linejoin: miter; stroke-linecap: square"/>
   </g>
   <g id="patch_4">
    <path d="M 844.234627 81.304 
L 844.234627 10.8 
" style="fill: none; stroke: #000000; stroke-width: 0.8; stroke-linejoin: miter; stroke-linecap: square"/>
   </g>
   <g id="patch_5">
    <path d="M 65 81.304 
L 844.234627 81.304 
" style="fill: none; stroke: #000000; stroke-width: 0.8; stroke-linejoin: miter; stroke-linecap: square"/>
   </g>
   <g id="patch_6">
    <path d="M 65 10.8 
L 844.234627 10.8 
" style="fill: none; stroke: #000000; stroke-width: 0.8; stroke-linejoin: miter; stroke-linecap: square"/>
   </g>
   <g id="legend_1">
    <g id="patch_7">
     <path d="M 380.480595 48.15625 
L 528.754032 48.15625 
Q 530.754032 48.15625 530.754032 46.15625 
L 530.754032 17.8 
Q 530.754032 15.8 528.754032 15.8 
L 380.480595 15.8 
Q 378.480595 15.8 378.480595 17.8 
L 378.480595 46.15625 
Q 378.480595 48.15625 380.480595 48.15625 
z
" style="fill: #ffffff; opacity: 0.8; stroke: #cccccc; stroke-linejoin: miter"/>
    </g>
    <g id="line2d_21">
     <path d="M 382.480595 23.898437 
L 392.480595 23.898437 
L 402.480595 23.898437 
" style="fill: none; stroke: #000000; stroke-width: 3; stroke-linecap: square"/>
    </g>
    <g id="text_12">
     <!-- Actual Load -->
     <g transform="translate(410.480595 27.398437) scale(0.1 -0.1)">
      <use xlink:href="#DejaVuSans-41"/>
      <use xlink:href="#DejaVuSans-63" x="66.658203"/>
      <use xlink:href="#DejaVuSans-74" x="121.638672"/>
      <use xlink:href="#DejaVuSans-75" x="160.847656"/>
      <use xlink:href="#DejaVuSans-61" x="224.226562"/>
      <use xlink:href="#DejaVuSans-6c" x="285.505859"/>
      <use xlink:href="#DejaVuSans-20" x="313.289062"/>
      <use xlink:href="#DejaVuSans-4c" x="345.076172"/>
      <use xlink:href="#DejaVuSans-6f" x="399.039062"/>
      <use xlink:href="#DejaVuSans-61" x="460.220703"/>
      <use xlink:href="#DejaVuSans-64" x="521.5"/>
     </g>
    </g>
    <g id="line2d_22">
     <path d="M 382.480595 38.576562 
L 392.480595 38.576562 
L 402.480595 38.576562 
" style="fill: none; stroke: #ff0000; stroke-width: 3; stroke-linecap: square"/>
    </g>
    <g id="text_13">
     <!-- KAN Part Forecast Load -->
     <g transform="translate(410.480595 42.076562) scale(0.1 -0.1)">
      <use xlink:href="#DejaVuSans-4b"/>
      <use xlink:href="#DejaVuSans-41" x="63.826172"/>
      <use xlink:href="#DejaVuSans-4e" x="132.234375"/>
      <use xlink:href="#DejaVuSans-20" x="207.039062"/>
      <use xlink:href="#DejaVuSans-50" x="238.826172"/>
      <use xlink:href="#DejaVuSans-61" x="294.628906"/>
      <use xlink:href="#DejaVuSans-72" x="355.908203"/>
      <use xlink:href="#DejaVuSans-74" x="397.021484"/>
      <use xlink:href="#DejaVuSans-20" x="436.230469"/>
      <use xlink:href="#DejaVuSans-46" x="468.017578"/>
      <use xlink:href="#DejaVuSans-6f" x="521.912109"/>
      <use xlink:href="#DejaVuSans-72" x="583.09375"/>
      <use xlink:href="#DejaVuSans-65" x="621.957031"/>
      <use xlink:href="#DejaVuSans-63" x="683.480469"/>
      <use xlink:href="#DejaVuSans-61" x="738.460938"/>
      <use xlink:href="#DejaVuSans-73" x="799.740234"/>
      <use xlink:href="#DejaVuSans-74" x="851.839844"/>
      <use xlink:href="#DejaVuSans-20" x="891.048828"/>
      <use xlink:href="#DejaVuSans-4c" x="922.835938"/>
      <use xlink:href="#DejaVuSans-6f" x="976.798828"/>
      <use xlink:href="#DejaVuSans-61" x="1037.980469"/>
      <use xlink:href="#DejaVuSans-64" x="1099.259766"/>
     </g>
    </g>
   </g>
  </g>
 </g>
 <defs>
  <clipPath id="p0af3bcd567">
   <rect x="65" y="10.8" width="779.234627" height="70.504"/>
  </clipPath>
 </defs>
</svg>
